G04 #@! TF.GenerationSoftware,KiCad,Pcbnew,(5.1.9)-1*
G04 #@! TF.CreationDate,2021-04-02T20:50:49-05:00*
G04 #@! TF.ProjectId,coax-probe,636f6178-2d70-4726-9f62-652e6b696361,rev?*
G04 #@! TF.SameCoordinates,Original*
G04 #@! TF.FileFunction,Copper,L2,Bot*
G04 #@! TF.FilePolarity,Positive*
%FSLAX46Y46*%
G04 Gerber Fmt 4.6, Leading zero omitted, Abs format (unit mm)*
G04 Created by KiCad (PCBNEW (5.1.9)-1) date 2021-04-02 20:50:49*
%MOMM*%
%LPD*%
G01*
G04 APERTURE LIST*
G04 #@! TA.AperFunction,SMDPad,CuDef*
%ADD10R,5.080000X1.500000*%
G04 #@! TD*
G04 #@! TA.AperFunction,ComponentPad*
%ADD11O,1.700000X1.700000*%
G04 #@! TD*
G04 #@! TA.AperFunction,ComponentPad*
%ADD12R,1.700000X1.700000*%
G04 #@! TD*
G04 #@! TA.AperFunction,ViaPad*
%ADD13C,0.600000*%
G04 #@! TD*
G04 #@! TA.AperFunction,ViaPad*
%ADD14C,0.800000*%
G04 #@! TD*
G04 #@! TA.AperFunction,Conductor*
%ADD15C,0.500000*%
G04 #@! TD*
G04 #@! TA.AperFunction,Conductor*
%ADD16C,0.254000*%
G04 #@! TD*
G04 #@! TA.AperFunction,Conductor*
%ADD17C,0.100000*%
G04 #@! TD*
G04 APERTURE END LIST*
D10*
X182500000Y-51950000D03*
X182500000Y-60450000D03*
D11*
X180500000Y-68240000D03*
D12*
X180500000Y-65700000D03*
D11*
X158800000Y-61240000D03*
D12*
X158800000Y-58700000D03*
D13*
X179400000Y-57100000D03*
X178500000Y-55300000D03*
X178500000Y-57100000D03*
X177700000Y-54600000D03*
X177500000Y-57100000D03*
X176700000Y-56400000D03*
X176900000Y-53900000D03*
X179400000Y-55300000D03*
X183400000Y-57600000D03*
X170400000Y-55700000D03*
X180100000Y-54800000D03*
X182300000Y-54800000D03*
X183400000Y-54800000D03*
X168400000Y-53700000D03*
X171300000Y-55700000D03*
D14*
X173825000Y-64800000D03*
X167965008Y-66434992D03*
D13*
X169500000Y-55700000D03*
X181200000Y-54800000D03*
X174000000Y-53900000D03*
X182300000Y-57600000D03*
D14*
X175100000Y-63900006D03*
D13*
X174900000Y-55700000D03*
X171300000Y-53900000D03*
X172200000Y-55700000D03*
X175900000Y-53900000D03*
X173100000Y-53900000D03*
X174900000Y-53900000D03*
X169500000Y-53900000D03*
X170400000Y-53900000D03*
D14*
X170000000Y-59400000D03*
D13*
X174000000Y-55700000D03*
X173100000Y-55700000D03*
X180100000Y-57600000D03*
X172200000Y-53900000D03*
D14*
X163600000Y-54400000D03*
D13*
X175900000Y-55700000D03*
X181200000Y-57600000D03*
D14*
X165899986Y-55400056D03*
X165900000Y-60420002D03*
D15*
X165899986Y-55400056D02*
X165899986Y-60419988D01*
D16*
X184473000Y-50771442D02*
X182733750Y-50773000D01*
X182627000Y-50879750D01*
X182627000Y-51823000D01*
X182647000Y-51823000D01*
X182647000Y-52077000D01*
X182627000Y-52077000D01*
X182627000Y-53020250D01*
X182733750Y-53127000D01*
X184473000Y-53128558D01*
X184473000Y-59271442D01*
X182733750Y-59273000D01*
X182627000Y-59379750D01*
X182627000Y-60323000D01*
X182647000Y-60323000D01*
X182647000Y-60577000D01*
X182627000Y-60577000D01*
X182627000Y-61520250D01*
X182733750Y-61627000D01*
X184473000Y-61628558D01*
X184473000Y-69473000D01*
X162952606Y-69473000D01*
X161603682Y-68124076D01*
X179323000Y-68124076D01*
X179323000Y-68355924D01*
X179368231Y-68583318D01*
X179456956Y-68797519D01*
X179585764Y-68990294D01*
X179749706Y-69154236D01*
X179942481Y-69283044D01*
X180156682Y-69371769D01*
X180384076Y-69417000D01*
X180615924Y-69417000D01*
X180843318Y-69371769D01*
X181057519Y-69283044D01*
X181250294Y-69154236D01*
X181414236Y-68990294D01*
X181543044Y-68797519D01*
X181631769Y-68583318D01*
X181677000Y-68355924D01*
X181677000Y-68124076D01*
X181631769Y-67896682D01*
X181543044Y-67682481D01*
X181414236Y-67489706D01*
X181250294Y-67325764D01*
X181057519Y-67196956D01*
X180843318Y-67108231D01*
X180615924Y-67063000D01*
X180384076Y-67063000D01*
X180156682Y-67108231D01*
X179942481Y-67196956D01*
X179749706Y-67325764D01*
X179585764Y-67489706D01*
X179456956Y-67682481D01*
X179368231Y-67896682D01*
X179323000Y-68124076D01*
X161603682Y-68124076D01*
X160029606Y-66550000D01*
X179220934Y-66550000D01*
X179229178Y-66633707D01*
X179253595Y-66714196D01*
X179293245Y-66788376D01*
X179346605Y-66853395D01*
X179411624Y-66906755D01*
X179485804Y-66946405D01*
X179566293Y-66970822D01*
X179650000Y-66979066D01*
X180266250Y-66977000D01*
X180373000Y-66870250D01*
X180373000Y-65827000D01*
X180627000Y-65827000D01*
X180627000Y-66870250D01*
X180733750Y-66977000D01*
X181350000Y-66979066D01*
X181433707Y-66970822D01*
X181514196Y-66946405D01*
X181588376Y-66906755D01*
X181653395Y-66853395D01*
X181706755Y-66788376D01*
X181746405Y-66714196D01*
X181770822Y-66633707D01*
X181779066Y-66550000D01*
X181777000Y-65933750D01*
X181670250Y-65827000D01*
X180627000Y-65827000D01*
X180373000Y-65827000D01*
X179329750Y-65827000D01*
X179223000Y-65933750D01*
X179220934Y-66550000D01*
X160029606Y-66550000D01*
X158329606Y-64850000D01*
X179220934Y-64850000D01*
X179223000Y-65466250D01*
X179329750Y-65573000D01*
X180373000Y-65573000D01*
X180373000Y-64529750D01*
X180627000Y-64529750D01*
X180627000Y-65573000D01*
X181670250Y-65573000D01*
X181777000Y-65466250D01*
X181779066Y-64850000D01*
X181770822Y-64766293D01*
X181746405Y-64685804D01*
X181706755Y-64611624D01*
X181653395Y-64546605D01*
X181588376Y-64493245D01*
X181514196Y-64453595D01*
X181433707Y-64429178D01*
X181350000Y-64420934D01*
X180733750Y-64423000D01*
X180627000Y-64529750D01*
X180373000Y-64529750D01*
X180266250Y-64423000D01*
X179650000Y-64420934D01*
X179566293Y-64429178D01*
X179485804Y-64453595D01*
X179411624Y-64493245D01*
X179346605Y-64546605D01*
X179293245Y-64611624D01*
X179253595Y-64685804D01*
X179229178Y-64766293D01*
X179220934Y-64850000D01*
X158329606Y-64850000D01*
X157527000Y-64047394D01*
X157527000Y-61367002D01*
X157636661Y-61367002D01*
X157564842Y-61564213D01*
X157592875Y-61656646D01*
X157697353Y-61884139D01*
X157844205Y-62086878D01*
X158027788Y-62257072D01*
X158241047Y-62388180D01*
X158475786Y-62475164D01*
X158673000Y-62403925D01*
X158673000Y-61367000D01*
X158927000Y-61367000D01*
X158927000Y-62403925D01*
X159124214Y-62475164D01*
X159358953Y-62388180D01*
X159572212Y-62257072D01*
X159755795Y-62086878D01*
X159902647Y-61884139D01*
X160007125Y-61656646D01*
X160035158Y-61564213D01*
X159963338Y-61367000D01*
X158927000Y-61367000D01*
X158673000Y-61367000D01*
X158653000Y-61367000D01*
X158653000Y-61200000D01*
X179530934Y-61200000D01*
X179539178Y-61283707D01*
X179563595Y-61364196D01*
X179603245Y-61438376D01*
X179656605Y-61503395D01*
X179721624Y-61556755D01*
X179795804Y-61596405D01*
X179876293Y-61620822D01*
X179960000Y-61629066D01*
X182266250Y-61627000D01*
X182373000Y-61520250D01*
X182373000Y-60577000D01*
X179639750Y-60577000D01*
X179533000Y-60683750D01*
X179530934Y-61200000D01*
X158653000Y-61200000D01*
X158653000Y-61113000D01*
X158673000Y-61113000D01*
X158673000Y-60076075D01*
X158927000Y-60076075D01*
X158927000Y-61113000D01*
X159963338Y-61113000D01*
X160035158Y-60915787D01*
X160007125Y-60823354D01*
X159902647Y-60595861D01*
X159755795Y-60393122D01*
X159572212Y-60222928D01*
X159358953Y-60091820D01*
X159124214Y-60004836D01*
X158927000Y-60076075D01*
X158673000Y-60076075D01*
X158475786Y-60004836D01*
X158241047Y-60091820D01*
X158027788Y-60222928D01*
X157844205Y-60393122D01*
X157697353Y-60595861D01*
X157592875Y-60823354D01*
X157564842Y-60915787D01*
X157636661Y-61112998D01*
X157527000Y-61112998D01*
X157527000Y-57850000D01*
X157621418Y-57850000D01*
X157621418Y-59550000D01*
X157627732Y-59614103D01*
X157646430Y-59675743D01*
X157676794Y-59732550D01*
X157717657Y-59782343D01*
X157767450Y-59823206D01*
X157824257Y-59853570D01*
X157885897Y-59872268D01*
X157950000Y-59878582D01*
X159650000Y-59878582D01*
X159714103Y-59872268D01*
X159775743Y-59853570D01*
X159832550Y-59823206D01*
X159882343Y-59782343D01*
X159923206Y-59732550D01*
X159953570Y-59675743D01*
X159972268Y-59614103D01*
X159978582Y-59550000D01*
X159978582Y-57850000D01*
X159972268Y-57785897D01*
X159953570Y-57724257D01*
X159923206Y-57667450D01*
X159882343Y-57617657D01*
X159832550Y-57576794D01*
X159775743Y-57546430D01*
X159714103Y-57527732D01*
X159650000Y-57521418D01*
X157950000Y-57521418D01*
X157885897Y-57527732D01*
X157824257Y-57546430D01*
X157767450Y-57576794D01*
X157717657Y-57617657D01*
X157676794Y-57667450D01*
X157646430Y-57724257D01*
X157627732Y-57785897D01*
X157621418Y-57850000D01*
X157527000Y-57850000D01*
X157527000Y-55952606D01*
X157579606Y-55900000D01*
X162973000Y-55900000D01*
X162973000Y-57300000D01*
X162975440Y-57324776D01*
X162982667Y-57348601D01*
X162994403Y-57370557D01*
X163010197Y-57389803D01*
X163029443Y-57405597D01*
X163051399Y-57417333D01*
X163075224Y-57424560D01*
X163100000Y-57427000D01*
X165322986Y-57427000D01*
X165322987Y-58373000D01*
X163100000Y-58373000D01*
X163075224Y-58375440D01*
X163051399Y-58382667D01*
X163029443Y-58394403D01*
X163010197Y-58410197D01*
X162994403Y-58429443D01*
X162982667Y-58451399D01*
X162975440Y-58475224D01*
X162973000Y-58500000D01*
X162973000Y-59900000D01*
X162975440Y-59924776D01*
X162982667Y-59948601D01*
X162994403Y-59970557D01*
X163010197Y-59989803D01*
X163029443Y-60005597D01*
X163051399Y-60017333D01*
X163075224Y-60024560D01*
X163100000Y-60027000D01*
X165288240Y-60027000D01*
X165255741Y-60075638D01*
X165200938Y-60207944D01*
X165173000Y-60348399D01*
X165173000Y-60491605D01*
X165200938Y-60632060D01*
X165255741Y-60764366D01*
X165335302Y-60883438D01*
X165436564Y-60984700D01*
X165555636Y-61064261D01*
X165687942Y-61119064D01*
X165828397Y-61147002D01*
X165971603Y-61147002D01*
X166112058Y-61119064D01*
X166244364Y-61064261D01*
X166363436Y-60984700D01*
X166464698Y-60883438D01*
X166544259Y-60764366D01*
X166599062Y-60632060D01*
X166627000Y-60491605D01*
X166627000Y-60348399D01*
X166599062Y-60207944D01*
X166544259Y-60075638D01*
X166476986Y-59974956D01*
X166476986Y-59700000D01*
X179530934Y-59700000D01*
X179533000Y-60216250D01*
X179639750Y-60323000D01*
X182373000Y-60323000D01*
X182373000Y-59379750D01*
X182266250Y-59273000D01*
X179960000Y-59270934D01*
X179876293Y-59279178D01*
X179795804Y-59303595D01*
X179721624Y-59343245D01*
X179656605Y-59396605D01*
X179603245Y-59461624D01*
X179563595Y-59535804D01*
X179539178Y-59616293D01*
X179530934Y-59700000D01*
X166476986Y-59700000D01*
X166476986Y-57324734D01*
X166500000Y-57327000D01*
X167200000Y-57327000D01*
X167224776Y-57324560D01*
X167248601Y-57317333D01*
X167270557Y-57305597D01*
X167289803Y-57289803D01*
X167305597Y-57270557D01*
X167317333Y-57248601D01*
X167324560Y-57224776D01*
X167327000Y-57200000D01*
X167327000Y-56927000D01*
X168900000Y-56927000D01*
X168924776Y-56924560D01*
X168948601Y-56917333D01*
X168970557Y-56905597D01*
X168989803Y-56889803D01*
X169005597Y-56870557D01*
X169017333Y-56848601D01*
X169024560Y-56824776D01*
X169027000Y-56800000D01*
X169027000Y-56000000D01*
X169024560Y-55975224D01*
X169017333Y-55951399D01*
X169005597Y-55929443D01*
X168989803Y-55910197D01*
X168970557Y-55894403D01*
X168948601Y-55882667D01*
X168924776Y-55875440D01*
X168900000Y-55873000D01*
X167327000Y-55873000D01*
X167327000Y-54400000D01*
X167324560Y-54375224D01*
X167317333Y-54351399D01*
X167305597Y-54329443D01*
X167289803Y-54310197D01*
X167270557Y-54294403D01*
X167248601Y-54282667D01*
X167224776Y-54275440D01*
X167200000Y-54273000D01*
X166500000Y-54273000D01*
X166475224Y-54275440D01*
X166451399Y-54282667D01*
X166429443Y-54294403D01*
X166410197Y-54310197D01*
X166394403Y-54329443D01*
X166382667Y-54351399D01*
X166375440Y-54375224D01*
X166373000Y-54400000D01*
X166373000Y-54844936D01*
X166363422Y-54835358D01*
X166244350Y-54755797D01*
X166112044Y-54700994D01*
X165971589Y-54673056D01*
X165828383Y-54673056D01*
X165687928Y-54700994D01*
X165555622Y-54755797D01*
X165436550Y-54835358D01*
X165335288Y-54936620D01*
X165255727Y-55055692D01*
X165200924Y-55187998D01*
X165172986Y-55328453D01*
X165172986Y-55471659D01*
X165200924Y-55612114D01*
X165255727Y-55744420D01*
X165274823Y-55773000D01*
X163100000Y-55773000D01*
X163075224Y-55775440D01*
X163051399Y-55782667D01*
X163029443Y-55794403D01*
X163010197Y-55810197D01*
X162994403Y-55829443D01*
X162982667Y-55851399D01*
X162975440Y-55875224D01*
X162973000Y-55900000D01*
X157579606Y-55900000D01*
X160779606Y-52700000D01*
X179530934Y-52700000D01*
X179539178Y-52783707D01*
X179563595Y-52864196D01*
X179603245Y-52938376D01*
X179656605Y-53003395D01*
X179721624Y-53056755D01*
X179795804Y-53096405D01*
X179876293Y-53120822D01*
X179960000Y-53129066D01*
X182266250Y-53127000D01*
X182373000Y-53020250D01*
X182373000Y-52077000D01*
X179639750Y-52077000D01*
X179533000Y-52183750D01*
X179530934Y-52700000D01*
X160779606Y-52700000D01*
X162279606Y-51200000D01*
X179530934Y-51200000D01*
X179533000Y-51716250D01*
X179639750Y-51823000D01*
X182373000Y-51823000D01*
X182373000Y-50879750D01*
X182266250Y-50773000D01*
X179960000Y-50770934D01*
X179876293Y-50779178D01*
X179795804Y-50803595D01*
X179721624Y-50843245D01*
X179656605Y-50896605D01*
X179603245Y-50961624D01*
X179563595Y-51035804D01*
X179539178Y-51116293D01*
X179530934Y-51200000D01*
X162279606Y-51200000D01*
X162952606Y-50527000D01*
X184473000Y-50527000D01*
X184473000Y-50771442D01*
G04 #@! TA.AperFunction,Conductor*
D17*
G36*
X184473000Y-50771442D02*
G01*
X182733750Y-50773000D01*
X182627000Y-50879750D01*
X182627000Y-51823000D01*
X182647000Y-51823000D01*
X182647000Y-52077000D01*
X182627000Y-52077000D01*
X182627000Y-53020250D01*
X182733750Y-53127000D01*
X184473000Y-53128558D01*
X184473000Y-59271442D01*
X182733750Y-59273000D01*
X182627000Y-59379750D01*
X182627000Y-60323000D01*
X182647000Y-60323000D01*
X182647000Y-60577000D01*
X182627000Y-60577000D01*
X182627000Y-61520250D01*
X182733750Y-61627000D01*
X184473000Y-61628558D01*
X184473000Y-69473000D01*
X162952606Y-69473000D01*
X161603682Y-68124076D01*
X179323000Y-68124076D01*
X179323000Y-68355924D01*
X179368231Y-68583318D01*
X179456956Y-68797519D01*
X179585764Y-68990294D01*
X179749706Y-69154236D01*
X179942481Y-69283044D01*
X180156682Y-69371769D01*
X180384076Y-69417000D01*
X180615924Y-69417000D01*
X180843318Y-69371769D01*
X181057519Y-69283044D01*
X181250294Y-69154236D01*
X181414236Y-68990294D01*
X181543044Y-68797519D01*
X181631769Y-68583318D01*
X181677000Y-68355924D01*
X181677000Y-68124076D01*
X181631769Y-67896682D01*
X181543044Y-67682481D01*
X181414236Y-67489706D01*
X181250294Y-67325764D01*
X181057519Y-67196956D01*
X180843318Y-67108231D01*
X180615924Y-67063000D01*
X180384076Y-67063000D01*
X180156682Y-67108231D01*
X179942481Y-67196956D01*
X179749706Y-67325764D01*
X179585764Y-67489706D01*
X179456956Y-67682481D01*
X179368231Y-67896682D01*
X179323000Y-68124076D01*
X161603682Y-68124076D01*
X160029606Y-66550000D01*
X179220934Y-66550000D01*
X179229178Y-66633707D01*
X179253595Y-66714196D01*
X179293245Y-66788376D01*
X179346605Y-66853395D01*
X179411624Y-66906755D01*
X179485804Y-66946405D01*
X179566293Y-66970822D01*
X179650000Y-66979066D01*
X180266250Y-66977000D01*
X180373000Y-66870250D01*
X180373000Y-65827000D01*
X180627000Y-65827000D01*
X180627000Y-66870250D01*
X180733750Y-66977000D01*
X181350000Y-66979066D01*
X181433707Y-66970822D01*
X181514196Y-66946405D01*
X181588376Y-66906755D01*
X181653395Y-66853395D01*
X181706755Y-66788376D01*
X181746405Y-66714196D01*
X181770822Y-66633707D01*
X181779066Y-66550000D01*
X181777000Y-65933750D01*
X181670250Y-65827000D01*
X180627000Y-65827000D01*
X180373000Y-65827000D01*
X179329750Y-65827000D01*
X179223000Y-65933750D01*
X179220934Y-66550000D01*
X160029606Y-66550000D01*
X158329606Y-64850000D01*
X179220934Y-64850000D01*
X179223000Y-65466250D01*
X179329750Y-65573000D01*
X180373000Y-65573000D01*
X180373000Y-64529750D01*
X180627000Y-64529750D01*
X180627000Y-65573000D01*
X181670250Y-65573000D01*
X181777000Y-65466250D01*
X181779066Y-64850000D01*
X181770822Y-64766293D01*
X181746405Y-64685804D01*
X181706755Y-64611624D01*
X181653395Y-64546605D01*
X181588376Y-64493245D01*
X181514196Y-64453595D01*
X181433707Y-64429178D01*
X181350000Y-64420934D01*
X180733750Y-64423000D01*
X180627000Y-64529750D01*
X180373000Y-64529750D01*
X180266250Y-64423000D01*
X179650000Y-64420934D01*
X179566293Y-64429178D01*
X179485804Y-64453595D01*
X179411624Y-64493245D01*
X179346605Y-64546605D01*
X179293245Y-64611624D01*
X179253595Y-64685804D01*
X179229178Y-64766293D01*
X179220934Y-64850000D01*
X158329606Y-64850000D01*
X157527000Y-64047394D01*
X157527000Y-61367002D01*
X157636661Y-61367002D01*
X157564842Y-61564213D01*
X157592875Y-61656646D01*
X157697353Y-61884139D01*
X157844205Y-62086878D01*
X158027788Y-62257072D01*
X158241047Y-62388180D01*
X158475786Y-62475164D01*
X158673000Y-62403925D01*
X158673000Y-61367000D01*
X158927000Y-61367000D01*
X158927000Y-62403925D01*
X159124214Y-62475164D01*
X159358953Y-62388180D01*
X159572212Y-62257072D01*
X159755795Y-62086878D01*
X159902647Y-61884139D01*
X160007125Y-61656646D01*
X160035158Y-61564213D01*
X159963338Y-61367000D01*
X158927000Y-61367000D01*
X158673000Y-61367000D01*
X158653000Y-61367000D01*
X158653000Y-61200000D01*
X179530934Y-61200000D01*
X179539178Y-61283707D01*
X179563595Y-61364196D01*
X179603245Y-61438376D01*
X179656605Y-61503395D01*
X179721624Y-61556755D01*
X179795804Y-61596405D01*
X179876293Y-61620822D01*
X179960000Y-61629066D01*
X182266250Y-61627000D01*
X182373000Y-61520250D01*
X182373000Y-60577000D01*
X179639750Y-60577000D01*
X179533000Y-60683750D01*
X179530934Y-61200000D01*
X158653000Y-61200000D01*
X158653000Y-61113000D01*
X158673000Y-61113000D01*
X158673000Y-60076075D01*
X158927000Y-60076075D01*
X158927000Y-61113000D01*
X159963338Y-61113000D01*
X160035158Y-60915787D01*
X160007125Y-60823354D01*
X159902647Y-60595861D01*
X159755795Y-60393122D01*
X159572212Y-60222928D01*
X159358953Y-60091820D01*
X159124214Y-60004836D01*
X158927000Y-60076075D01*
X158673000Y-60076075D01*
X158475786Y-60004836D01*
X158241047Y-60091820D01*
X158027788Y-60222928D01*
X157844205Y-60393122D01*
X157697353Y-60595861D01*
X157592875Y-60823354D01*
X157564842Y-60915787D01*
X157636661Y-61112998D01*
X157527000Y-61112998D01*
X157527000Y-57850000D01*
X157621418Y-57850000D01*
X157621418Y-59550000D01*
X157627732Y-59614103D01*
X157646430Y-59675743D01*
X157676794Y-59732550D01*
X157717657Y-59782343D01*
X157767450Y-59823206D01*
X157824257Y-59853570D01*
X157885897Y-59872268D01*
X157950000Y-59878582D01*
X159650000Y-59878582D01*
X159714103Y-59872268D01*
X159775743Y-59853570D01*
X159832550Y-59823206D01*
X159882343Y-59782343D01*
X159923206Y-59732550D01*
X159953570Y-59675743D01*
X159972268Y-59614103D01*
X159978582Y-59550000D01*
X159978582Y-57850000D01*
X159972268Y-57785897D01*
X159953570Y-57724257D01*
X159923206Y-57667450D01*
X159882343Y-57617657D01*
X159832550Y-57576794D01*
X159775743Y-57546430D01*
X159714103Y-57527732D01*
X159650000Y-57521418D01*
X157950000Y-57521418D01*
X157885897Y-57527732D01*
X157824257Y-57546430D01*
X157767450Y-57576794D01*
X157717657Y-57617657D01*
X157676794Y-57667450D01*
X157646430Y-57724257D01*
X157627732Y-57785897D01*
X157621418Y-57850000D01*
X157527000Y-57850000D01*
X157527000Y-55952606D01*
X157579606Y-55900000D01*
X162973000Y-55900000D01*
X162973000Y-57300000D01*
X162975440Y-57324776D01*
X162982667Y-57348601D01*
X162994403Y-57370557D01*
X163010197Y-57389803D01*
X163029443Y-57405597D01*
X163051399Y-57417333D01*
X163075224Y-57424560D01*
X163100000Y-57427000D01*
X165322986Y-57427000D01*
X165322987Y-58373000D01*
X163100000Y-58373000D01*
X163075224Y-58375440D01*
X163051399Y-58382667D01*
X163029443Y-58394403D01*
X163010197Y-58410197D01*
X162994403Y-58429443D01*
X162982667Y-58451399D01*
X162975440Y-58475224D01*
X162973000Y-58500000D01*
X162973000Y-59900000D01*
X162975440Y-59924776D01*
X162982667Y-59948601D01*
X162994403Y-59970557D01*
X163010197Y-59989803D01*
X163029443Y-60005597D01*
X163051399Y-60017333D01*
X163075224Y-60024560D01*
X163100000Y-60027000D01*
X165288240Y-60027000D01*
X165255741Y-60075638D01*
X165200938Y-60207944D01*
X165173000Y-60348399D01*
X165173000Y-60491605D01*
X165200938Y-60632060D01*
X165255741Y-60764366D01*
X165335302Y-60883438D01*
X165436564Y-60984700D01*
X165555636Y-61064261D01*
X165687942Y-61119064D01*
X165828397Y-61147002D01*
X165971603Y-61147002D01*
X166112058Y-61119064D01*
X166244364Y-61064261D01*
X166363436Y-60984700D01*
X166464698Y-60883438D01*
X166544259Y-60764366D01*
X166599062Y-60632060D01*
X166627000Y-60491605D01*
X166627000Y-60348399D01*
X166599062Y-60207944D01*
X166544259Y-60075638D01*
X166476986Y-59974956D01*
X166476986Y-59700000D01*
X179530934Y-59700000D01*
X179533000Y-60216250D01*
X179639750Y-60323000D01*
X182373000Y-60323000D01*
X182373000Y-59379750D01*
X182266250Y-59273000D01*
X179960000Y-59270934D01*
X179876293Y-59279178D01*
X179795804Y-59303595D01*
X179721624Y-59343245D01*
X179656605Y-59396605D01*
X179603245Y-59461624D01*
X179563595Y-59535804D01*
X179539178Y-59616293D01*
X179530934Y-59700000D01*
X166476986Y-59700000D01*
X166476986Y-57324734D01*
X166500000Y-57327000D01*
X167200000Y-57327000D01*
X167224776Y-57324560D01*
X167248601Y-57317333D01*
X167270557Y-57305597D01*
X167289803Y-57289803D01*
X167305597Y-57270557D01*
X167317333Y-57248601D01*
X167324560Y-57224776D01*
X167327000Y-57200000D01*
X167327000Y-56927000D01*
X168900000Y-56927000D01*
X168924776Y-56924560D01*
X168948601Y-56917333D01*
X168970557Y-56905597D01*
X168989803Y-56889803D01*
X169005597Y-56870557D01*
X169017333Y-56848601D01*
X169024560Y-56824776D01*
X169027000Y-56800000D01*
X169027000Y-56000000D01*
X169024560Y-55975224D01*
X169017333Y-55951399D01*
X169005597Y-55929443D01*
X168989803Y-55910197D01*
X168970557Y-55894403D01*
X168948601Y-55882667D01*
X168924776Y-55875440D01*
X168900000Y-55873000D01*
X167327000Y-55873000D01*
X167327000Y-54400000D01*
X167324560Y-54375224D01*
X167317333Y-54351399D01*
X167305597Y-54329443D01*
X167289803Y-54310197D01*
X167270557Y-54294403D01*
X167248601Y-54282667D01*
X167224776Y-54275440D01*
X167200000Y-54273000D01*
X166500000Y-54273000D01*
X166475224Y-54275440D01*
X166451399Y-54282667D01*
X166429443Y-54294403D01*
X166410197Y-54310197D01*
X166394403Y-54329443D01*
X166382667Y-54351399D01*
X166375440Y-54375224D01*
X166373000Y-54400000D01*
X166373000Y-54844936D01*
X166363422Y-54835358D01*
X166244350Y-54755797D01*
X166112044Y-54700994D01*
X165971589Y-54673056D01*
X165828383Y-54673056D01*
X165687928Y-54700994D01*
X165555622Y-54755797D01*
X165436550Y-54835358D01*
X165335288Y-54936620D01*
X165255727Y-55055692D01*
X165200924Y-55187998D01*
X165172986Y-55328453D01*
X165172986Y-55471659D01*
X165200924Y-55612114D01*
X165255727Y-55744420D01*
X165274823Y-55773000D01*
X163100000Y-55773000D01*
X163075224Y-55775440D01*
X163051399Y-55782667D01*
X163029443Y-55794403D01*
X163010197Y-55810197D01*
X162994403Y-55829443D01*
X162982667Y-55851399D01*
X162975440Y-55875224D01*
X162973000Y-55900000D01*
X157579606Y-55900000D01*
X160779606Y-52700000D01*
X179530934Y-52700000D01*
X179539178Y-52783707D01*
X179563595Y-52864196D01*
X179603245Y-52938376D01*
X179656605Y-53003395D01*
X179721624Y-53056755D01*
X179795804Y-53096405D01*
X179876293Y-53120822D01*
X179960000Y-53129066D01*
X182266250Y-53127000D01*
X182373000Y-53020250D01*
X182373000Y-52077000D01*
X179639750Y-52077000D01*
X179533000Y-52183750D01*
X179530934Y-52700000D01*
X160779606Y-52700000D01*
X162279606Y-51200000D01*
X179530934Y-51200000D01*
X179533000Y-51716250D01*
X179639750Y-51823000D01*
X182373000Y-51823000D01*
X182373000Y-50879750D01*
X182266250Y-50773000D01*
X179960000Y-50770934D01*
X179876293Y-50779178D01*
X179795804Y-50803595D01*
X179721624Y-50843245D01*
X179656605Y-50896605D01*
X179603245Y-50961624D01*
X179563595Y-51035804D01*
X179539178Y-51116293D01*
X179530934Y-51200000D01*
X162279606Y-51200000D01*
X162952606Y-50527000D01*
X184473000Y-50527000D01*
X184473000Y-50771442D01*
G37*
G04 #@! TD.AperFunction*
M02*
