M48
; DRILL file {KiCad (5.1.9)-1} date 04/02/21 20:50:52
; FORMAT={-:-/ absolute / inch / decimal}
; #@! TF.CreationDate,2021-04-02T20:50:52-05:00
; #@! TF.GenerationSoftware,Kicad,Pcbnew,(5.1.9)-1
; #@! TF.FileFunction,Plated,1,2,PTH
FMAT,2
INCH
T1C0.0118
T2C0.0157
T3C0.0394
%
G90
G05
T1
X6.6299Y-2.1142
X6.6732Y-2.122
X6.6732Y-2.1929
X6.7087Y-2.122
X6.7087Y-2.1929
X6.7441Y-2.122
X6.7441Y-2.1929
X6.7795Y-2.122
X6.7795Y-2.1929
X6.815Y-2.122
X6.815Y-2.1929
X6.8504Y-2.122
X6.8504Y-2.1929
X6.8858Y-2.122
X6.8858Y-2.1929
X6.9252Y-2.122
X6.9252Y-2.1929
X6.9567Y-2.2205
X6.9646Y-2.122
X6.9882Y-2.248
X6.9961Y-2.1496
X7.0276Y-2.1772
X7.0276Y-2.248
X7.063Y-2.1772
X7.063Y-2.248
X7.0906Y-2.1575
X7.0906Y-2.2677
X7.1339Y-2.1575
X7.1339Y-2.2677
X7.1772Y-2.1575
X7.1772Y-2.2677
X7.2205Y-2.1575
X7.2205Y-2.2677
T2
X6.4409Y-2.1417
X6.5315Y-2.1811
X6.5315Y-2.3787
X6.6128Y-2.6156
X6.6929Y-2.3386
X6.8435Y-2.5512
X6.8937Y-2.5157
T3
X6.252Y-2.311
X6.252Y-2.411
X7.1063Y-2.5866
X7.1063Y-2.6866
T0
M30
