G04 #@! TF.GenerationSoftware,KiCad,Pcbnew,(5.1.9)-1*
G04 #@! TF.CreationDate,2021-04-02T20:51:07-05:00*
G04 #@! TF.ProjectId,coax-probe,636f6178-2d70-4726-9f62-652e6b696361,rev?*
G04 #@! TF.SameCoordinates,Original*
G04 #@! TF.FileFunction,Copper,L2,Bot*
G04 #@! TF.FilePolarity,Positive*
%FSLAX46Y46*%
G04 Gerber Fmt 4.6, Leading zero omitted, Abs format (unit mm)*
G04 Created by KiCad (PCBNEW (5.1.9)-1) date 2021-04-02 20:51:07*
%MOMM*%
%LPD*%
G01*
G04 APERTURE LIST*
G04 #@! TA.AperFunction,ComponentPad*
%ADD10O,1.700000X1.700000*%
G04 #@! TD*
G04 #@! TA.AperFunction,ComponentPad*
%ADD11R,1.700000X1.700000*%
G04 #@! TD*
G04 #@! TA.AperFunction,SMDPad,CuDef*
%ADD12R,5.080000X1.500000*%
G04 #@! TD*
G04 #@! TA.AperFunction,ViaPad*
%ADD13C,0.600000*%
G04 #@! TD*
G04 #@! TA.AperFunction,ViaPad*
%ADD14C,0.800000*%
G04 #@! TD*
G04 #@! TA.AperFunction,Conductor*
%ADD15C,0.254000*%
G04 #@! TD*
G04 #@! TA.AperFunction,Conductor*
%ADD16C,0.100000*%
G04 #@! TD*
G04 APERTURE END LIST*
D10*
X180500000Y-89240000D03*
D11*
X180500000Y-86700000D03*
D12*
X182450000Y-72950000D03*
X182450000Y-81450000D03*
D10*
X158800000Y-78460000D03*
X158800000Y-81000000D03*
D11*
X158800000Y-83540000D03*
D13*
X178600000Y-77000000D03*
X179300000Y-76300000D03*
X179800000Y-79500000D03*
D14*
X173424992Y-85075008D03*
D13*
X181200000Y-78600000D03*
X180100000Y-75800000D03*
X183400000Y-75800000D03*
X182300000Y-75800000D03*
X182300000Y-78600000D03*
X179800000Y-78600000D03*
X183400000Y-78600000D03*
D14*
X169400000Y-77200000D03*
D13*
X178000000Y-77800000D03*
X178900000Y-79800000D03*
X176700000Y-79800000D03*
D14*
X171200000Y-81700000D03*
D13*
X174800000Y-77800000D03*
D14*
X162524994Y-82675006D03*
X174579986Y-83301971D03*
D13*
X181200000Y-75800000D03*
X176400000Y-77800000D03*
D14*
X173100000Y-77899998D03*
D13*
X178000000Y-79800000D03*
D14*
X167000000Y-86999990D03*
X177400000Y-82000000D03*
D15*
X184473000Y-71771397D02*
X182683750Y-71773000D01*
X182577000Y-71879750D01*
X182577000Y-72823000D01*
X182597000Y-72823000D01*
X182597000Y-73077000D01*
X182577000Y-73077000D01*
X182577000Y-74020250D01*
X182683750Y-74127000D01*
X184473000Y-74128603D01*
X184473000Y-80271397D01*
X182683750Y-80273000D01*
X182577000Y-80379750D01*
X182577000Y-81323000D01*
X182597000Y-81323000D01*
X182597000Y-81577000D01*
X182577000Y-81577000D01*
X182577000Y-82520250D01*
X182683750Y-82627000D01*
X184473000Y-82628603D01*
X184473000Y-90473000D01*
X162952606Y-90473000D01*
X161603682Y-89124076D01*
X179323000Y-89124076D01*
X179323000Y-89355924D01*
X179368231Y-89583318D01*
X179456956Y-89797519D01*
X179585764Y-89990294D01*
X179749706Y-90154236D01*
X179942481Y-90283044D01*
X180156682Y-90371769D01*
X180384076Y-90417000D01*
X180615924Y-90417000D01*
X180843318Y-90371769D01*
X181057519Y-90283044D01*
X181250294Y-90154236D01*
X181414236Y-89990294D01*
X181543044Y-89797519D01*
X181631769Y-89583318D01*
X181677000Y-89355924D01*
X181677000Y-89124076D01*
X181631769Y-88896682D01*
X181543044Y-88682481D01*
X181414236Y-88489706D01*
X181250294Y-88325764D01*
X181057519Y-88196956D01*
X180843318Y-88108231D01*
X180615924Y-88063000D01*
X180384076Y-88063000D01*
X180156682Y-88108231D01*
X179942481Y-88196956D01*
X179749706Y-88325764D01*
X179585764Y-88489706D01*
X179456956Y-88682481D01*
X179368231Y-88896682D01*
X179323000Y-89124076D01*
X161603682Y-89124076D01*
X160029606Y-87550000D01*
X179220934Y-87550000D01*
X179229178Y-87633707D01*
X179253595Y-87714196D01*
X179293245Y-87788376D01*
X179346605Y-87853395D01*
X179411624Y-87906755D01*
X179485804Y-87946405D01*
X179566293Y-87970822D01*
X179650000Y-87979066D01*
X180266250Y-87977000D01*
X180373000Y-87870250D01*
X180373000Y-86827000D01*
X180627000Y-86827000D01*
X180627000Y-87870250D01*
X180733750Y-87977000D01*
X181350000Y-87979066D01*
X181433707Y-87970822D01*
X181514196Y-87946405D01*
X181588376Y-87906755D01*
X181653395Y-87853395D01*
X181706755Y-87788376D01*
X181746405Y-87714196D01*
X181770822Y-87633707D01*
X181779066Y-87550000D01*
X181777000Y-86933750D01*
X181670250Y-86827000D01*
X180627000Y-86827000D01*
X180373000Y-86827000D01*
X179329750Y-86827000D01*
X179223000Y-86933750D01*
X179220934Y-87550000D01*
X160029606Y-87550000D01*
X158329606Y-85850000D01*
X179220934Y-85850000D01*
X179223000Y-86466250D01*
X179329750Y-86573000D01*
X180373000Y-86573000D01*
X180373000Y-85529750D01*
X180627000Y-85529750D01*
X180627000Y-86573000D01*
X181670250Y-86573000D01*
X181777000Y-86466250D01*
X181779066Y-85850000D01*
X181770822Y-85766293D01*
X181746405Y-85685804D01*
X181706755Y-85611624D01*
X181653395Y-85546605D01*
X181588376Y-85493245D01*
X181514196Y-85453595D01*
X181433707Y-85429178D01*
X181350000Y-85420934D01*
X180733750Y-85423000D01*
X180627000Y-85529750D01*
X180373000Y-85529750D01*
X180266250Y-85423000D01*
X179650000Y-85420934D01*
X179566293Y-85429178D01*
X179485804Y-85453595D01*
X179411624Y-85493245D01*
X179346605Y-85546605D01*
X179293245Y-85611624D01*
X179253595Y-85685804D01*
X179229178Y-85766293D01*
X179220934Y-85850000D01*
X158329606Y-85850000D01*
X157527000Y-85047394D01*
X157527000Y-84451592D01*
X157529178Y-84473707D01*
X157553595Y-84554196D01*
X157593245Y-84628376D01*
X157646605Y-84693395D01*
X157711624Y-84746755D01*
X157785804Y-84786405D01*
X157866293Y-84810822D01*
X157950000Y-84819066D01*
X158566250Y-84817000D01*
X158673000Y-84710250D01*
X158673000Y-83667000D01*
X158927000Y-83667000D01*
X158927000Y-84710250D01*
X159033750Y-84817000D01*
X159650000Y-84819066D01*
X159733707Y-84810822D01*
X159814196Y-84786405D01*
X159888376Y-84746755D01*
X159953395Y-84693395D01*
X160006755Y-84628376D01*
X160046405Y-84554196D01*
X160070822Y-84473707D01*
X160079066Y-84390000D01*
X160077000Y-83773750D01*
X160003250Y-83700000D01*
X171572999Y-83700000D01*
X171575439Y-83724776D01*
X171582666Y-83748601D01*
X171594402Y-83770557D01*
X171610196Y-83789803D01*
X171629442Y-83805597D01*
X171651398Y-83817333D01*
X171675223Y-83824560D01*
X171699999Y-83827000D01*
X172500000Y-83827000D01*
X172524776Y-83824560D01*
X172548601Y-83817333D01*
X172570557Y-83805597D01*
X172589803Y-83789803D01*
X172605597Y-83770557D01*
X172617333Y-83748601D01*
X172624560Y-83724776D01*
X172627000Y-83700000D01*
X172627000Y-82200000D01*
X179480934Y-82200000D01*
X179489178Y-82283707D01*
X179513595Y-82364196D01*
X179553245Y-82438376D01*
X179606605Y-82503395D01*
X179671624Y-82556755D01*
X179745804Y-82596405D01*
X179826293Y-82620822D01*
X179910000Y-82629066D01*
X182216250Y-82627000D01*
X182323000Y-82520250D01*
X182323000Y-81577000D01*
X179589750Y-81577000D01*
X179483000Y-81683750D01*
X179480934Y-82200000D01*
X172627000Y-82200000D01*
X172627000Y-81000000D01*
X172624560Y-80975224D01*
X172617333Y-80951399D01*
X172605597Y-80929443D01*
X172589803Y-80910197D01*
X172570557Y-80894403D01*
X172548601Y-80882667D01*
X172524776Y-80875440D01*
X172500000Y-80873000D01*
X171700000Y-80873000D01*
X171675224Y-80875440D01*
X171651399Y-80882667D01*
X171629443Y-80894403D01*
X171610197Y-80910197D01*
X171594403Y-80929443D01*
X171582667Y-80951399D01*
X171575440Y-80975223D01*
X171573000Y-81000000D01*
X171572999Y-83700000D01*
X160003250Y-83700000D01*
X159970250Y-83667000D01*
X158927000Y-83667000D01*
X158673000Y-83667000D01*
X158653000Y-83667000D01*
X158653000Y-83413000D01*
X158673000Y-83413000D01*
X158673000Y-82369750D01*
X158927000Y-82369750D01*
X158927000Y-83413000D01*
X159970250Y-83413000D01*
X160077000Y-83306250D01*
X160079066Y-82690000D01*
X160070822Y-82606293D01*
X160046405Y-82525804D01*
X160006755Y-82451624D01*
X159953395Y-82386605D01*
X159888376Y-82333245D01*
X159814196Y-82293595D01*
X159733707Y-82269178D01*
X159650000Y-82260934D01*
X159033750Y-82263000D01*
X158927000Y-82369750D01*
X158673000Y-82369750D01*
X158566250Y-82263000D01*
X157950000Y-82260934D01*
X157866293Y-82269178D01*
X157785804Y-82293595D01*
X157711624Y-82333245D01*
X157646605Y-82386605D01*
X157593245Y-82451624D01*
X157553595Y-82525804D01*
X157529178Y-82606293D01*
X157527000Y-82628408D01*
X157527000Y-80884076D01*
X157623000Y-80884076D01*
X157623000Y-81115924D01*
X157668231Y-81343318D01*
X157756956Y-81557519D01*
X157885764Y-81750294D01*
X158049706Y-81914236D01*
X158242481Y-82043044D01*
X158456682Y-82131769D01*
X158684076Y-82177000D01*
X158915924Y-82177000D01*
X159143318Y-82131769D01*
X159357519Y-82043044D01*
X159550294Y-81914236D01*
X159714236Y-81750294D01*
X159843044Y-81557519D01*
X159931769Y-81343318D01*
X159977000Y-81115924D01*
X159977000Y-80884076D01*
X159940386Y-80700000D01*
X179480934Y-80700000D01*
X179483000Y-81216250D01*
X179589750Y-81323000D01*
X182323000Y-81323000D01*
X182323000Y-80379750D01*
X182216250Y-80273000D01*
X179910000Y-80270934D01*
X179826293Y-80279178D01*
X179745804Y-80303595D01*
X179671624Y-80343245D01*
X179606605Y-80396605D01*
X179553245Y-80461624D01*
X179513595Y-80535804D01*
X179489178Y-80616293D01*
X179480934Y-80700000D01*
X159940386Y-80700000D01*
X159931769Y-80656682D01*
X159843044Y-80442481D01*
X159714236Y-80249706D01*
X159550294Y-80085764D01*
X159357519Y-79956956D01*
X159143318Y-79868231D01*
X158915924Y-79823000D01*
X158684076Y-79823000D01*
X158456682Y-79868231D01*
X158242481Y-79956956D01*
X158049706Y-80085764D01*
X157885764Y-80249706D01*
X157756956Y-80442481D01*
X157668231Y-80656682D01*
X157623000Y-80884076D01*
X157527000Y-80884076D01*
X157527000Y-78344076D01*
X157623000Y-78344076D01*
X157623000Y-78575924D01*
X157668231Y-78803318D01*
X157756956Y-79017519D01*
X157885764Y-79210294D01*
X158049706Y-79374236D01*
X158242481Y-79503044D01*
X158456682Y-79591769D01*
X158684076Y-79637000D01*
X158915924Y-79637000D01*
X159101937Y-79600000D01*
X169973000Y-79600000D01*
X169975440Y-79624776D01*
X169982667Y-79648601D01*
X169994403Y-79670557D01*
X170010197Y-79689803D01*
X170029443Y-79705597D01*
X170051399Y-79717333D01*
X170075224Y-79724560D01*
X170100000Y-79727000D01*
X172500000Y-79727000D01*
X172524776Y-79724560D01*
X172548601Y-79717333D01*
X172570557Y-79705597D01*
X172589803Y-79689803D01*
X172605597Y-79670557D01*
X172617333Y-79648601D01*
X172624560Y-79624776D01*
X172627000Y-79600000D01*
X172627000Y-78350000D01*
X173573000Y-78350000D01*
X173573000Y-79650000D01*
X173575440Y-79674776D01*
X173582667Y-79698601D01*
X173594403Y-79720557D01*
X173610197Y-79739803D01*
X173629443Y-79755597D01*
X173651399Y-79767333D01*
X173675224Y-79774560D01*
X173700000Y-79777000D01*
X174400000Y-79777000D01*
X174424776Y-79774560D01*
X174448601Y-79767333D01*
X174470557Y-79755597D01*
X174489803Y-79739803D01*
X174505597Y-79720557D01*
X174517333Y-79698601D01*
X174524560Y-79674776D01*
X174527000Y-79650000D01*
X174527000Y-79327000D01*
X177650000Y-79327000D01*
X177674776Y-79324560D01*
X177698601Y-79317333D01*
X177720557Y-79305597D01*
X177739803Y-79289803D01*
X177755597Y-79270557D01*
X177767333Y-79248601D01*
X177774560Y-79224776D01*
X177777000Y-79200000D01*
X177777000Y-78350001D01*
X177774560Y-78325225D01*
X177767333Y-78301400D01*
X177755597Y-78279444D01*
X177739803Y-78260198D01*
X177720557Y-78244404D01*
X177698601Y-78232668D01*
X177674777Y-78225441D01*
X177650000Y-78223001D01*
X173700000Y-78223000D01*
X173675224Y-78225440D01*
X173651399Y-78232667D01*
X173629443Y-78244403D01*
X173610197Y-78260197D01*
X173594403Y-78279443D01*
X173582667Y-78301399D01*
X173575440Y-78325224D01*
X173573000Y-78350000D01*
X172627000Y-78350000D01*
X172627000Y-78300000D01*
X172624560Y-78275224D01*
X172617333Y-78251399D01*
X172605597Y-78229443D01*
X172589803Y-78210197D01*
X172570557Y-78194403D01*
X172548601Y-78182667D01*
X172524776Y-78175440D01*
X172500000Y-78173000D01*
X170100001Y-78173000D01*
X170075225Y-78175440D01*
X170051400Y-78182667D01*
X170029444Y-78194403D01*
X170010199Y-78210197D01*
X169994404Y-78229442D01*
X169982668Y-78251399D01*
X169975441Y-78275223D01*
X169973001Y-78300000D01*
X169973000Y-79600000D01*
X159101937Y-79600000D01*
X159143318Y-79591769D01*
X159357519Y-79503044D01*
X159550294Y-79374236D01*
X159714236Y-79210294D01*
X159843044Y-79017519D01*
X159931769Y-78803318D01*
X159977000Y-78575924D01*
X159977000Y-78344076D01*
X159931769Y-78116682D01*
X159843044Y-77902481D01*
X159714236Y-77709706D01*
X159550294Y-77545764D01*
X159357519Y-77416956D01*
X159143318Y-77328231D01*
X158915924Y-77283000D01*
X158684076Y-77283000D01*
X158456682Y-77328231D01*
X158242481Y-77416956D01*
X158049706Y-77545764D01*
X157885764Y-77709706D01*
X157756956Y-77902481D01*
X157668231Y-78116682D01*
X157623000Y-78344076D01*
X157527000Y-78344076D01*
X157527000Y-76952606D01*
X160779606Y-73700000D01*
X179480934Y-73700000D01*
X179489178Y-73783707D01*
X179513595Y-73864196D01*
X179553245Y-73938376D01*
X179606605Y-74003395D01*
X179671624Y-74056755D01*
X179745804Y-74096405D01*
X179826293Y-74120822D01*
X179910000Y-74129066D01*
X182216250Y-74127000D01*
X182323000Y-74020250D01*
X182323000Y-73077000D01*
X179589750Y-73077000D01*
X179483000Y-73183750D01*
X179480934Y-73700000D01*
X160779606Y-73700000D01*
X162279606Y-72200000D01*
X179480934Y-72200000D01*
X179483000Y-72716250D01*
X179589750Y-72823000D01*
X182323000Y-72823000D01*
X182323000Y-71879750D01*
X182216250Y-71773000D01*
X179910000Y-71770934D01*
X179826293Y-71779178D01*
X179745804Y-71803595D01*
X179671624Y-71843245D01*
X179606605Y-71896605D01*
X179553245Y-71961624D01*
X179513595Y-72035804D01*
X179489178Y-72116293D01*
X179480934Y-72200000D01*
X162279606Y-72200000D01*
X162952606Y-71527000D01*
X184473000Y-71527000D01*
X184473000Y-71771397D01*
G04 #@! TA.AperFunction,Conductor*
D16*
G36*
X184473000Y-71771397D02*
G01*
X182683750Y-71773000D01*
X182577000Y-71879750D01*
X182577000Y-72823000D01*
X182597000Y-72823000D01*
X182597000Y-73077000D01*
X182577000Y-73077000D01*
X182577000Y-74020250D01*
X182683750Y-74127000D01*
X184473000Y-74128603D01*
X184473000Y-80271397D01*
X182683750Y-80273000D01*
X182577000Y-80379750D01*
X182577000Y-81323000D01*
X182597000Y-81323000D01*
X182597000Y-81577000D01*
X182577000Y-81577000D01*
X182577000Y-82520250D01*
X182683750Y-82627000D01*
X184473000Y-82628603D01*
X184473000Y-90473000D01*
X162952606Y-90473000D01*
X161603682Y-89124076D01*
X179323000Y-89124076D01*
X179323000Y-89355924D01*
X179368231Y-89583318D01*
X179456956Y-89797519D01*
X179585764Y-89990294D01*
X179749706Y-90154236D01*
X179942481Y-90283044D01*
X180156682Y-90371769D01*
X180384076Y-90417000D01*
X180615924Y-90417000D01*
X180843318Y-90371769D01*
X181057519Y-90283044D01*
X181250294Y-90154236D01*
X181414236Y-89990294D01*
X181543044Y-89797519D01*
X181631769Y-89583318D01*
X181677000Y-89355924D01*
X181677000Y-89124076D01*
X181631769Y-88896682D01*
X181543044Y-88682481D01*
X181414236Y-88489706D01*
X181250294Y-88325764D01*
X181057519Y-88196956D01*
X180843318Y-88108231D01*
X180615924Y-88063000D01*
X180384076Y-88063000D01*
X180156682Y-88108231D01*
X179942481Y-88196956D01*
X179749706Y-88325764D01*
X179585764Y-88489706D01*
X179456956Y-88682481D01*
X179368231Y-88896682D01*
X179323000Y-89124076D01*
X161603682Y-89124076D01*
X160029606Y-87550000D01*
X179220934Y-87550000D01*
X179229178Y-87633707D01*
X179253595Y-87714196D01*
X179293245Y-87788376D01*
X179346605Y-87853395D01*
X179411624Y-87906755D01*
X179485804Y-87946405D01*
X179566293Y-87970822D01*
X179650000Y-87979066D01*
X180266250Y-87977000D01*
X180373000Y-87870250D01*
X180373000Y-86827000D01*
X180627000Y-86827000D01*
X180627000Y-87870250D01*
X180733750Y-87977000D01*
X181350000Y-87979066D01*
X181433707Y-87970822D01*
X181514196Y-87946405D01*
X181588376Y-87906755D01*
X181653395Y-87853395D01*
X181706755Y-87788376D01*
X181746405Y-87714196D01*
X181770822Y-87633707D01*
X181779066Y-87550000D01*
X181777000Y-86933750D01*
X181670250Y-86827000D01*
X180627000Y-86827000D01*
X180373000Y-86827000D01*
X179329750Y-86827000D01*
X179223000Y-86933750D01*
X179220934Y-87550000D01*
X160029606Y-87550000D01*
X158329606Y-85850000D01*
X179220934Y-85850000D01*
X179223000Y-86466250D01*
X179329750Y-86573000D01*
X180373000Y-86573000D01*
X180373000Y-85529750D01*
X180627000Y-85529750D01*
X180627000Y-86573000D01*
X181670250Y-86573000D01*
X181777000Y-86466250D01*
X181779066Y-85850000D01*
X181770822Y-85766293D01*
X181746405Y-85685804D01*
X181706755Y-85611624D01*
X181653395Y-85546605D01*
X181588376Y-85493245D01*
X181514196Y-85453595D01*
X181433707Y-85429178D01*
X181350000Y-85420934D01*
X180733750Y-85423000D01*
X180627000Y-85529750D01*
X180373000Y-85529750D01*
X180266250Y-85423000D01*
X179650000Y-85420934D01*
X179566293Y-85429178D01*
X179485804Y-85453595D01*
X179411624Y-85493245D01*
X179346605Y-85546605D01*
X179293245Y-85611624D01*
X179253595Y-85685804D01*
X179229178Y-85766293D01*
X179220934Y-85850000D01*
X158329606Y-85850000D01*
X157527000Y-85047394D01*
X157527000Y-84451592D01*
X157529178Y-84473707D01*
X157553595Y-84554196D01*
X157593245Y-84628376D01*
X157646605Y-84693395D01*
X157711624Y-84746755D01*
X157785804Y-84786405D01*
X157866293Y-84810822D01*
X157950000Y-84819066D01*
X158566250Y-84817000D01*
X158673000Y-84710250D01*
X158673000Y-83667000D01*
X158927000Y-83667000D01*
X158927000Y-84710250D01*
X159033750Y-84817000D01*
X159650000Y-84819066D01*
X159733707Y-84810822D01*
X159814196Y-84786405D01*
X159888376Y-84746755D01*
X159953395Y-84693395D01*
X160006755Y-84628376D01*
X160046405Y-84554196D01*
X160070822Y-84473707D01*
X160079066Y-84390000D01*
X160077000Y-83773750D01*
X160003250Y-83700000D01*
X171572999Y-83700000D01*
X171575439Y-83724776D01*
X171582666Y-83748601D01*
X171594402Y-83770557D01*
X171610196Y-83789803D01*
X171629442Y-83805597D01*
X171651398Y-83817333D01*
X171675223Y-83824560D01*
X171699999Y-83827000D01*
X172500000Y-83827000D01*
X172524776Y-83824560D01*
X172548601Y-83817333D01*
X172570557Y-83805597D01*
X172589803Y-83789803D01*
X172605597Y-83770557D01*
X172617333Y-83748601D01*
X172624560Y-83724776D01*
X172627000Y-83700000D01*
X172627000Y-82200000D01*
X179480934Y-82200000D01*
X179489178Y-82283707D01*
X179513595Y-82364196D01*
X179553245Y-82438376D01*
X179606605Y-82503395D01*
X179671624Y-82556755D01*
X179745804Y-82596405D01*
X179826293Y-82620822D01*
X179910000Y-82629066D01*
X182216250Y-82627000D01*
X182323000Y-82520250D01*
X182323000Y-81577000D01*
X179589750Y-81577000D01*
X179483000Y-81683750D01*
X179480934Y-82200000D01*
X172627000Y-82200000D01*
X172627000Y-81000000D01*
X172624560Y-80975224D01*
X172617333Y-80951399D01*
X172605597Y-80929443D01*
X172589803Y-80910197D01*
X172570557Y-80894403D01*
X172548601Y-80882667D01*
X172524776Y-80875440D01*
X172500000Y-80873000D01*
X171700000Y-80873000D01*
X171675224Y-80875440D01*
X171651399Y-80882667D01*
X171629443Y-80894403D01*
X171610197Y-80910197D01*
X171594403Y-80929443D01*
X171582667Y-80951399D01*
X171575440Y-80975223D01*
X171573000Y-81000000D01*
X171572999Y-83700000D01*
X160003250Y-83700000D01*
X159970250Y-83667000D01*
X158927000Y-83667000D01*
X158673000Y-83667000D01*
X158653000Y-83667000D01*
X158653000Y-83413000D01*
X158673000Y-83413000D01*
X158673000Y-82369750D01*
X158927000Y-82369750D01*
X158927000Y-83413000D01*
X159970250Y-83413000D01*
X160077000Y-83306250D01*
X160079066Y-82690000D01*
X160070822Y-82606293D01*
X160046405Y-82525804D01*
X160006755Y-82451624D01*
X159953395Y-82386605D01*
X159888376Y-82333245D01*
X159814196Y-82293595D01*
X159733707Y-82269178D01*
X159650000Y-82260934D01*
X159033750Y-82263000D01*
X158927000Y-82369750D01*
X158673000Y-82369750D01*
X158566250Y-82263000D01*
X157950000Y-82260934D01*
X157866293Y-82269178D01*
X157785804Y-82293595D01*
X157711624Y-82333245D01*
X157646605Y-82386605D01*
X157593245Y-82451624D01*
X157553595Y-82525804D01*
X157529178Y-82606293D01*
X157527000Y-82628408D01*
X157527000Y-80884076D01*
X157623000Y-80884076D01*
X157623000Y-81115924D01*
X157668231Y-81343318D01*
X157756956Y-81557519D01*
X157885764Y-81750294D01*
X158049706Y-81914236D01*
X158242481Y-82043044D01*
X158456682Y-82131769D01*
X158684076Y-82177000D01*
X158915924Y-82177000D01*
X159143318Y-82131769D01*
X159357519Y-82043044D01*
X159550294Y-81914236D01*
X159714236Y-81750294D01*
X159843044Y-81557519D01*
X159931769Y-81343318D01*
X159977000Y-81115924D01*
X159977000Y-80884076D01*
X159940386Y-80700000D01*
X179480934Y-80700000D01*
X179483000Y-81216250D01*
X179589750Y-81323000D01*
X182323000Y-81323000D01*
X182323000Y-80379750D01*
X182216250Y-80273000D01*
X179910000Y-80270934D01*
X179826293Y-80279178D01*
X179745804Y-80303595D01*
X179671624Y-80343245D01*
X179606605Y-80396605D01*
X179553245Y-80461624D01*
X179513595Y-80535804D01*
X179489178Y-80616293D01*
X179480934Y-80700000D01*
X159940386Y-80700000D01*
X159931769Y-80656682D01*
X159843044Y-80442481D01*
X159714236Y-80249706D01*
X159550294Y-80085764D01*
X159357519Y-79956956D01*
X159143318Y-79868231D01*
X158915924Y-79823000D01*
X158684076Y-79823000D01*
X158456682Y-79868231D01*
X158242481Y-79956956D01*
X158049706Y-80085764D01*
X157885764Y-80249706D01*
X157756956Y-80442481D01*
X157668231Y-80656682D01*
X157623000Y-80884076D01*
X157527000Y-80884076D01*
X157527000Y-78344076D01*
X157623000Y-78344076D01*
X157623000Y-78575924D01*
X157668231Y-78803318D01*
X157756956Y-79017519D01*
X157885764Y-79210294D01*
X158049706Y-79374236D01*
X158242481Y-79503044D01*
X158456682Y-79591769D01*
X158684076Y-79637000D01*
X158915924Y-79637000D01*
X159101937Y-79600000D01*
X169973000Y-79600000D01*
X169975440Y-79624776D01*
X169982667Y-79648601D01*
X169994403Y-79670557D01*
X170010197Y-79689803D01*
X170029443Y-79705597D01*
X170051399Y-79717333D01*
X170075224Y-79724560D01*
X170100000Y-79727000D01*
X172500000Y-79727000D01*
X172524776Y-79724560D01*
X172548601Y-79717333D01*
X172570557Y-79705597D01*
X172589803Y-79689803D01*
X172605597Y-79670557D01*
X172617333Y-79648601D01*
X172624560Y-79624776D01*
X172627000Y-79600000D01*
X172627000Y-78350000D01*
X173573000Y-78350000D01*
X173573000Y-79650000D01*
X173575440Y-79674776D01*
X173582667Y-79698601D01*
X173594403Y-79720557D01*
X173610197Y-79739803D01*
X173629443Y-79755597D01*
X173651399Y-79767333D01*
X173675224Y-79774560D01*
X173700000Y-79777000D01*
X174400000Y-79777000D01*
X174424776Y-79774560D01*
X174448601Y-79767333D01*
X174470557Y-79755597D01*
X174489803Y-79739803D01*
X174505597Y-79720557D01*
X174517333Y-79698601D01*
X174524560Y-79674776D01*
X174527000Y-79650000D01*
X174527000Y-79327000D01*
X177650000Y-79327000D01*
X177674776Y-79324560D01*
X177698601Y-79317333D01*
X177720557Y-79305597D01*
X177739803Y-79289803D01*
X177755597Y-79270557D01*
X177767333Y-79248601D01*
X177774560Y-79224776D01*
X177777000Y-79200000D01*
X177777000Y-78350001D01*
X177774560Y-78325225D01*
X177767333Y-78301400D01*
X177755597Y-78279444D01*
X177739803Y-78260198D01*
X177720557Y-78244404D01*
X177698601Y-78232668D01*
X177674777Y-78225441D01*
X177650000Y-78223001D01*
X173700000Y-78223000D01*
X173675224Y-78225440D01*
X173651399Y-78232667D01*
X173629443Y-78244403D01*
X173610197Y-78260197D01*
X173594403Y-78279443D01*
X173582667Y-78301399D01*
X173575440Y-78325224D01*
X173573000Y-78350000D01*
X172627000Y-78350000D01*
X172627000Y-78300000D01*
X172624560Y-78275224D01*
X172617333Y-78251399D01*
X172605597Y-78229443D01*
X172589803Y-78210197D01*
X172570557Y-78194403D01*
X172548601Y-78182667D01*
X172524776Y-78175440D01*
X172500000Y-78173000D01*
X170100001Y-78173000D01*
X170075225Y-78175440D01*
X170051400Y-78182667D01*
X170029444Y-78194403D01*
X170010199Y-78210197D01*
X169994404Y-78229442D01*
X169982668Y-78251399D01*
X169975441Y-78275223D01*
X169973001Y-78300000D01*
X169973000Y-79600000D01*
X159101937Y-79600000D01*
X159143318Y-79591769D01*
X159357519Y-79503044D01*
X159550294Y-79374236D01*
X159714236Y-79210294D01*
X159843044Y-79017519D01*
X159931769Y-78803318D01*
X159977000Y-78575924D01*
X159977000Y-78344076D01*
X159931769Y-78116682D01*
X159843044Y-77902481D01*
X159714236Y-77709706D01*
X159550294Y-77545764D01*
X159357519Y-77416956D01*
X159143318Y-77328231D01*
X158915924Y-77283000D01*
X158684076Y-77283000D01*
X158456682Y-77328231D01*
X158242481Y-77416956D01*
X158049706Y-77545764D01*
X157885764Y-77709706D01*
X157756956Y-77902481D01*
X157668231Y-78116682D01*
X157623000Y-78344076D01*
X157527000Y-78344076D01*
X157527000Y-76952606D01*
X160779606Y-73700000D01*
X179480934Y-73700000D01*
X179489178Y-73783707D01*
X179513595Y-73864196D01*
X179553245Y-73938376D01*
X179606605Y-74003395D01*
X179671624Y-74056755D01*
X179745804Y-74096405D01*
X179826293Y-74120822D01*
X179910000Y-74129066D01*
X182216250Y-74127000D01*
X182323000Y-74020250D01*
X182323000Y-73077000D01*
X179589750Y-73077000D01*
X179483000Y-73183750D01*
X179480934Y-73700000D01*
X160779606Y-73700000D01*
X162279606Y-72200000D01*
X179480934Y-72200000D01*
X179483000Y-72716250D01*
X179589750Y-72823000D01*
X182323000Y-72823000D01*
X182323000Y-71879750D01*
X182216250Y-71773000D01*
X179910000Y-71770934D01*
X179826293Y-71779178D01*
X179745804Y-71803595D01*
X179671624Y-71843245D01*
X179606605Y-71896605D01*
X179553245Y-71961624D01*
X179513595Y-72035804D01*
X179489178Y-72116293D01*
X179480934Y-72200000D01*
X162279606Y-72200000D01*
X162952606Y-71527000D01*
X184473000Y-71527000D01*
X184473000Y-71771397D01*
G37*
G04 #@! TD.AperFunction*
M02*
