G04 #@! TF.GenerationSoftware,KiCad,Pcbnew,(5.1.9)-1*
G04 #@! TF.CreationDate,2021-04-02T20:51:07-05:00*
G04 #@! TF.ProjectId,coax-probe,636f6178-2d70-4726-9f62-652e6b696361,rev?*
G04 #@! TF.SameCoordinates,Original*
G04 #@! TF.FileFunction,Copper,L1,Top*
G04 #@! TF.FilePolarity,Positive*
%FSLAX46Y46*%
G04 Gerber Fmt 4.6, Leading zero omitted, Abs format (unit mm)*
G04 Created by KiCad (PCBNEW (5.1.9)-1) date 2021-04-02 20:51:07*
%MOMM*%
%LPD*%
G01*
G04 APERTURE LIST*
G04 #@! TA.AperFunction,SMDPad,CuDef*
%ADD10R,0.650000X1.220000*%
G04 #@! TD*
G04 #@! TA.AperFunction,SMDPad,CuDef*
%ADD11R,0.900000X0.800000*%
G04 #@! TD*
G04 #@! TA.AperFunction,ComponentPad*
%ADD12O,1.700000X1.700000*%
G04 #@! TD*
G04 #@! TA.AperFunction,ComponentPad*
%ADD13R,1.700000X1.700000*%
G04 #@! TD*
G04 #@! TA.AperFunction,SMDPad,CuDef*
%ADD14R,5.080000X1.500000*%
G04 #@! TD*
G04 #@! TA.AperFunction,ViaPad*
%ADD15C,0.600000*%
G04 #@! TD*
G04 #@! TA.AperFunction,ViaPad*
%ADD16C,0.800000*%
G04 #@! TD*
G04 #@! TA.AperFunction,Conductor*
%ADD17C,0.500000*%
G04 #@! TD*
G04 #@! TA.AperFunction,Conductor*
%ADD18C,0.650000*%
G04 #@! TD*
G04 #@! TA.AperFunction,Conductor*
%ADD19C,0.254000*%
G04 #@! TD*
G04 #@! TA.AperFunction,Conductor*
%ADD20C,0.100000*%
G04 #@! TD*
G04 APERTURE END LIST*
G04 #@! TA.AperFunction,SMDPad,CuDef*
G36*
G01*
X164575000Y-75762500D02*
X164575000Y-76237500D01*
G75*
G02*
X164337500Y-76475000I-237500J0D01*
G01*
X163837500Y-76475000D01*
G75*
G02*
X163600000Y-76237500I0J237500D01*
G01*
X163600000Y-75762500D01*
G75*
G02*
X163837500Y-75525000I237500J0D01*
G01*
X164337500Y-75525000D01*
G75*
G02*
X164575000Y-75762500I0J-237500D01*
G01*
G37*
G04 #@! TD.AperFunction*
G04 #@! TA.AperFunction,SMDPad,CuDef*
G36*
G01*
X166400000Y-75762500D02*
X166400000Y-76237500D01*
G75*
G02*
X166162500Y-76475000I-237500J0D01*
G01*
X165662500Y-76475000D01*
G75*
G02*
X165425000Y-76237500I0J237500D01*
G01*
X165425000Y-75762500D01*
G75*
G02*
X165662500Y-75525000I237500J0D01*
G01*
X166162500Y-75525000D01*
G75*
G02*
X166400000Y-75762500I0J-237500D01*
G01*
G37*
G04 #@! TD.AperFunction*
G04 #@! TA.AperFunction,SMDPad,CuDef*
G36*
G01*
X169570000Y-78400000D02*
X169230000Y-78400000D01*
G75*
G02*
X169090000Y-78260000I0J140000D01*
G01*
X169090000Y-77980000D01*
G75*
G02*
X169230000Y-77840000I140000J0D01*
G01*
X169570000Y-77840000D01*
G75*
G02*
X169710000Y-77980000I0J-140000D01*
G01*
X169710000Y-78260000D01*
G75*
G02*
X169570000Y-78400000I-140000J0D01*
G01*
G37*
G04 #@! TD.AperFunction*
G04 #@! TA.AperFunction,SMDPad,CuDef*
G36*
G01*
X169570000Y-79360000D02*
X169230000Y-79360000D01*
G75*
G02*
X169090000Y-79220000I0J140000D01*
G01*
X169090000Y-78940000D01*
G75*
G02*
X169230000Y-78800000I140000J0D01*
G01*
X169570000Y-78800000D01*
G75*
G02*
X169710000Y-78940000I0J-140000D01*
G01*
X169710000Y-79220000D01*
G75*
G02*
X169570000Y-79360000I-140000J0D01*
G01*
G37*
G04 #@! TD.AperFunction*
G04 #@! TA.AperFunction,SMDPad,CuDef*
G36*
G01*
X166500000Y-78045000D02*
X166500000Y-77745000D01*
G75*
G02*
X166650000Y-77595000I150000J0D01*
G01*
X168300000Y-77595000D01*
G75*
G02*
X168450000Y-77745000I0J-150000D01*
G01*
X168450000Y-78045000D01*
G75*
G02*
X168300000Y-78195000I-150000J0D01*
G01*
X166650000Y-78195000D01*
G75*
G02*
X166500000Y-78045000I0J150000D01*
G01*
G37*
G04 #@! TD.AperFunction*
G04 #@! TA.AperFunction,SMDPad,CuDef*
G36*
G01*
X166500000Y-79315000D02*
X166500000Y-79015000D01*
G75*
G02*
X166650000Y-78865000I150000J0D01*
G01*
X168300000Y-78865000D01*
G75*
G02*
X168450000Y-79015000I0J-150000D01*
G01*
X168450000Y-79315000D01*
G75*
G02*
X168300000Y-79465000I-150000J0D01*
G01*
X166650000Y-79465000D01*
G75*
G02*
X166500000Y-79315000I0J150000D01*
G01*
G37*
G04 #@! TD.AperFunction*
G04 #@! TA.AperFunction,SMDPad,CuDef*
G36*
G01*
X166500000Y-80585000D02*
X166500000Y-80285000D01*
G75*
G02*
X166650000Y-80135000I150000J0D01*
G01*
X168300000Y-80135000D01*
G75*
G02*
X168450000Y-80285000I0J-150000D01*
G01*
X168450000Y-80585000D01*
G75*
G02*
X168300000Y-80735000I-150000J0D01*
G01*
X166650000Y-80735000D01*
G75*
G02*
X166500000Y-80585000I0J150000D01*
G01*
G37*
G04 #@! TD.AperFunction*
G04 #@! TA.AperFunction,SMDPad,CuDef*
G36*
G01*
X166500000Y-81855000D02*
X166500000Y-81555000D01*
G75*
G02*
X166650000Y-81405000I150000J0D01*
G01*
X168300000Y-81405000D01*
G75*
G02*
X168450000Y-81555000I0J-150000D01*
G01*
X168450000Y-81855000D01*
G75*
G02*
X168300000Y-82005000I-150000J0D01*
G01*
X166650000Y-82005000D01*
G75*
G02*
X166500000Y-81855000I0J150000D01*
G01*
G37*
G04 #@! TD.AperFunction*
G04 #@! TA.AperFunction,SMDPad,CuDef*
G36*
G01*
X161550000Y-81855000D02*
X161550000Y-81555000D01*
G75*
G02*
X161700000Y-81405000I150000J0D01*
G01*
X163350000Y-81405000D01*
G75*
G02*
X163500000Y-81555000I0J-150000D01*
G01*
X163500000Y-81855000D01*
G75*
G02*
X163350000Y-82005000I-150000J0D01*
G01*
X161700000Y-82005000D01*
G75*
G02*
X161550000Y-81855000I0J150000D01*
G01*
G37*
G04 #@! TD.AperFunction*
G04 #@! TA.AperFunction,SMDPad,CuDef*
G36*
G01*
X161550000Y-80585000D02*
X161550000Y-80285000D01*
G75*
G02*
X161700000Y-80135000I150000J0D01*
G01*
X163350000Y-80135000D01*
G75*
G02*
X163500000Y-80285000I0J-150000D01*
G01*
X163500000Y-80585000D01*
G75*
G02*
X163350000Y-80735000I-150000J0D01*
G01*
X161700000Y-80735000D01*
G75*
G02*
X161550000Y-80585000I0J150000D01*
G01*
G37*
G04 #@! TD.AperFunction*
G04 #@! TA.AperFunction,SMDPad,CuDef*
G36*
G01*
X161550000Y-79315000D02*
X161550000Y-79015000D01*
G75*
G02*
X161700000Y-78865000I150000J0D01*
G01*
X163350000Y-78865000D01*
G75*
G02*
X163500000Y-79015000I0J-150000D01*
G01*
X163500000Y-79315000D01*
G75*
G02*
X163350000Y-79465000I-150000J0D01*
G01*
X161700000Y-79465000D01*
G75*
G02*
X161550000Y-79315000I0J150000D01*
G01*
G37*
G04 #@! TD.AperFunction*
G04 #@! TA.AperFunction,SMDPad,CuDef*
G36*
G01*
X161550000Y-78045000D02*
X161550000Y-77745000D01*
G75*
G02*
X161700000Y-77595000I150000J0D01*
G01*
X163350000Y-77595000D01*
G75*
G02*
X163500000Y-77745000I0J-150000D01*
G01*
X163500000Y-78045000D01*
G75*
G02*
X163350000Y-78195000I-150000J0D01*
G01*
X161700000Y-78195000D01*
G75*
G02*
X161550000Y-78045000I0J150000D01*
G01*
G37*
G04 #@! TD.AperFunction*
D10*
X174050000Y-81610000D03*
X173100000Y-81610000D03*
X172150000Y-81610000D03*
X172150000Y-78990000D03*
X173100000Y-78990000D03*
X174050000Y-78990000D03*
D11*
X167000000Y-86000000D03*
X169000000Y-85050000D03*
X169000000Y-86950000D03*
G04 #@! TA.AperFunction,SMDPad,CuDef*
G36*
G01*
X177125000Y-88250000D02*
X178075000Y-88250000D01*
G75*
G02*
X178325000Y-88500000I0J-250000D01*
G01*
X178325000Y-89000000D01*
G75*
G02*
X178075000Y-89250000I-250000J0D01*
G01*
X177125000Y-89250000D01*
G75*
G02*
X176875000Y-89000000I0J250000D01*
G01*
X176875000Y-88500000D01*
G75*
G02*
X177125000Y-88250000I250000J0D01*
G01*
G37*
G04 #@! TD.AperFunction*
G04 #@! TA.AperFunction,SMDPad,CuDef*
G36*
G01*
X177125000Y-86350000D02*
X178075000Y-86350000D01*
G75*
G02*
X178325000Y-86600000I0J-250000D01*
G01*
X178325000Y-87100000D01*
G75*
G02*
X178075000Y-87350000I-250000J0D01*
G01*
X177125000Y-87350000D01*
G75*
G02*
X176875000Y-87100000I0J250000D01*
G01*
X176875000Y-86600000D01*
G75*
G02*
X177125000Y-86350000I250000J0D01*
G01*
G37*
G04 #@! TD.AperFunction*
G04 #@! TA.AperFunction,SMDPad,CuDef*
G36*
G01*
X170425000Y-86325000D02*
X170975000Y-86325000D01*
G75*
G02*
X171175000Y-86525000I0J-200000D01*
G01*
X171175000Y-86925000D01*
G75*
G02*
X170975000Y-87125000I-200000J0D01*
G01*
X170425000Y-87125000D01*
G75*
G02*
X170225000Y-86925000I0J200000D01*
G01*
X170225000Y-86525000D01*
G75*
G02*
X170425000Y-86325000I200000J0D01*
G01*
G37*
G04 #@! TD.AperFunction*
G04 #@! TA.AperFunction,SMDPad,CuDef*
G36*
G01*
X170425000Y-84675000D02*
X170975000Y-84675000D01*
G75*
G02*
X171175000Y-84875000I0J-200000D01*
G01*
X171175000Y-85275000D01*
G75*
G02*
X170975000Y-85475000I-200000J0D01*
G01*
X170425000Y-85475000D01*
G75*
G02*
X170225000Y-85275000I0J200000D01*
G01*
X170225000Y-84875000D01*
G75*
G02*
X170425000Y-84675000I200000J0D01*
G01*
G37*
G04 #@! TD.AperFunction*
G04 #@! TA.AperFunction,SMDPad,CuDef*
G36*
G01*
X170325000Y-80025000D02*
X170875000Y-80025000D01*
G75*
G02*
X171075000Y-80225000I0J-200000D01*
G01*
X171075000Y-80625000D01*
G75*
G02*
X170875000Y-80825000I-200000J0D01*
G01*
X170325000Y-80825000D01*
G75*
G02*
X170125000Y-80625000I0J200000D01*
G01*
X170125000Y-80225000D01*
G75*
G02*
X170325000Y-80025000I200000J0D01*
G01*
G37*
G04 #@! TD.AperFunction*
G04 #@! TA.AperFunction,SMDPad,CuDef*
G36*
G01*
X170325000Y-78375000D02*
X170875000Y-78375000D01*
G75*
G02*
X171075000Y-78575000I0J-200000D01*
G01*
X171075000Y-78975000D01*
G75*
G02*
X170875000Y-79175000I-200000J0D01*
G01*
X170325000Y-79175000D01*
G75*
G02*
X170125000Y-78975000I0J200000D01*
G01*
X170125000Y-78575000D01*
G75*
G02*
X170325000Y-78375000I200000J0D01*
G01*
G37*
G04 #@! TD.AperFunction*
G04 #@! TA.AperFunction,SMDPad,CuDef*
G36*
G01*
X170000000Y-81870000D02*
X170000000Y-81530000D01*
G75*
G02*
X170140000Y-81390000I140000J0D01*
G01*
X170420000Y-81390000D01*
G75*
G02*
X170560000Y-81530000I0J-140000D01*
G01*
X170560000Y-81870000D01*
G75*
G02*
X170420000Y-82010000I-140000J0D01*
G01*
X170140000Y-82010000D01*
G75*
G02*
X170000000Y-81870000I0J140000D01*
G01*
G37*
G04 #@! TD.AperFunction*
G04 #@! TA.AperFunction,SMDPad,CuDef*
G36*
G01*
X169040000Y-81870000D02*
X169040000Y-81530000D01*
G75*
G02*
X169180000Y-81390000I140000J0D01*
G01*
X169460000Y-81390000D01*
G75*
G02*
X169600000Y-81530000I0J-140000D01*
G01*
X169600000Y-81870000D01*
G75*
G02*
X169460000Y-82010000I-140000J0D01*
G01*
X169180000Y-82010000D01*
G75*
G02*
X169040000Y-81870000I0J140000D01*
G01*
G37*
G04 #@! TD.AperFunction*
G04 #@! TA.AperFunction,SMDPad,CuDef*
G36*
G01*
X179225000Y-78525000D02*
X179225000Y-79075000D01*
G75*
G02*
X179025000Y-79275000I-200000J0D01*
G01*
X178625000Y-79275000D01*
G75*
G02*
X178425000Y-79075000I0J200000D01*
G01*
X178425000Y-78525000D01*
G75*
G02*
X178625000Y-78325000I200000J0D01*
G01*
X179025000Y-78325000D01*
G75*
G02*
X179225000Y-78525000I0J-200000D01*
G01*
G37*
G04 #@! TD.AperFunction*
G04 #@! TA.AperFunction,SMDPad,CuDef*
G36*
G01*
X177575000Y-78525000D02*
X177575000Y-79075000D01*
G75*
G02*
X177375000Y-79275000I-200000J0D01*
G01*
X176975000Y-79275000D01*
G75*
G02*
X176775000Y-79075000I0J200000D01*
G01*
X176775000Y-78525000D01*
G75*
G02*
X176975000Y-78325000I200000J0D01*
G01*
X177375000Y-78325000D01*
G75*
G02*
X177575000Y-78525000I0J-200000D01*
G01*
G37*
G04 #@! TD.AperFunction*
G04 #@! TA.AperFunction,SMDPad,CuDef*
G36*
G01*
X176200000Y-82170000D02*
X176200000Y-81830000D01*
G75*
G02*
X176340000Y-81690000I140000J0D01*
G01*
X176620000Y-81690000D01*
G75*
G02*
X176760000Y-81830000I0J-140000D01*
G01*
X176760000Y-82170000D01*
G75*
G02*
X176620000Y-82310000I-140000J0D01*
G01*
X176340000Y-82310000D01*
G75*
G02*
X176200000Y-82170000I0J140000D01*
G01*
G37*
G04 #@! TD.AperFunction*
G04 #@! TA.AperFunction,SMDPad,CuDef*
G36*
G01*
X175240000Y-82170000D02*
X175240000Y-81830000D01*
G75*
G02*
X175380000Y-81690000I140000J0D01*
G01*
X175660000Y-81690000D01*
G75*
G02*
X175800000Y-81830000I0J-140000D01*
G01*
X175800000Y-82170000D01*
G75*
G02*
X175660000Y-82310000I-140000J0D01*
G01*
X175380000Y-82310000D01*
G75*
G02*
X175240000Y-82170000I0J140000D01*
G01*
G37*
G04 #@! TD.AperFunction*
G04 #@! TA.AperFunction,SMDPad,CuDef*
G36*
G01*
X172775000Y-85475000D02*
X172225000Y-85475000D01*
G75*
G02*
X172025000Y-85275000I0J200000D01*
G01*
X172025000Y-84875000D01*
G75*
G02*
X172225000Y-84675000I200000J0D01*
G01*
X172775000Y-84675000D01*
G75*
G02*
X172975000Y-84875000I0J-200000D01*
G01*
X172975000Y-85275000D01*
G75*
G02*
X172775000Y-85475000I-200000J0D01*
G01*
G37*
G04 #@! TD.AperFunction*
G04 #@! TA.AperFunction,SMDPad,CuDef*
G36*
G01*
X172775000Y-87125000D02*
X172225000Y-87125000D01*
G75*
G02*
X172025000Y-86925000I0J200000D01*
G01*
X172025000Y-86525000D01*
G75*
G02*
X172225000Y-86325000I200000J0D01*
G01*
X172775000Y-86325000D01*
G75*
G02*
X172975000Y-86525000I0J-200000D01*
G01*
X172975000Y-86925000D01*
G75*
G02*
X172775000Y-87125000I-200000J0D01*
G01*
G37*
G04 #@! TD.AperFunction*
G04 #@! TA.AperFunction,SMDPad,CuDef*
G36*
G01*
X175325000Y-80025000D02*
X175875000Y-80025000D01*
G75*
G02*
X176075000Y-80225000I0J-200000D01*
G01*
X176075000Y-80625000D01*
G75*
G02*
X175875000Y-80825000I-200000J0D01*
G01*
X175325000Y-80825000D01*
G75*
G02*
X175125000Y-80625000I0J200000D01*
G01*
X175125000Y-80225000D01*
G75*
G02*
X175325000Y-80025000I200000J0D01*
G01*
G37*
G04 #@! TD.AperFunction*
G04 #@! TA.AperFunction,SMDPad,CuDef*
G36*
G01*
X175325000Y-78375000D02*
X175875000Y-78375000D01*
G75*
G02*
X176075000Y-78575000I0J-200000D01*
G01*
X176075000Y-78975000D01*
G75*
G02*
X175875000Y-79175000I-200000J0D01*
G01*
X175325000Y-79175000D01*
G75*
G02*
X175125000Y-78975000I0J200000D01*
G01*
X175125000Y-78575000D01*
G75*
G02*
X175325000Y-78375000I200000J0D01*
G01*
G37*
G04 #@! TD.AperFunction*
G04 #@! TA.AperFunction,SMDPad,CuDef*
G36*
G01*
X168525000Y-83575000D02*
X168525000Y-83025000D01*
G75*
G02*
X168725000Y-82825000I200000J0D01*
G01*
X169125000Y-82825000D01*
G75*
G02*
X169325000Y-83025000I0J-200000D01*
G01*
X169325000Y-83575000D01*
G75*
G02*
X169125000Y-83775000I-200000J0D01*
G01*
X168725000Y-83775000D01*
G75*
G02*
X168525000Y-83575000I0J200000D01*
G01*
G37*
G04 #@! TD.AperFunction*
G04 #@! TA.AperFunction,SMDPad,CuDef*
G36*
G01*
X166875000Y-83575000D02*
X166875000Y-83025000D01*
G75*
G02*
X167075000Y-82825000I200000J0D01*
G01*
X167475000Y-82825000D01*
G75*
G02*
X167675000Y-83025000I0J-200000D01*
G01*
X167675000Y-83575000D01*
G75*
G02*
X167475000Y-83775000I-200000J0D01*
G01*
X167075000Y-83775000D01*
G75*
G02*
X166875000Y-83575000I0J200000D01*
G01*
G37*
G04 #@! TD.AperFunction*
G04 #@! TA.AperFunction,SMDPad,CuDef*
G36*
G01*
X173325000Y-83575000D02*
X173325000Y-83025000D01*
G75*
G02*
X173525000Y-82825000I200000J0D01*
G01*
X173925000Y-82825000D01*
G75*
G02*
X174125000Y-83025000I0J-200000D01*
G01*
X174125000Y-83575000D01*
G75*
G02*
X173925000Y-83775000I-200000J0D01*
G01*
X173525000Y-83775000D01*
G75*
G02*
X173325000Y-83575000I0J200000D01*
G01*
G37*
G04 #@! TD.AperFunction*
G04 #@! TA.AperFunction,SMDPad,CuDef*
G36*
G01*
X171675000Y-83575000D02*
X171675000Y-83025000D01*
G75*
G02*
X171875000Y-82825000I200000J0D01*
G01*
X172275000Y-82825000D01*
G75*
G02*
X172475000Y-83025000I0J-200000D01*
G01*
X172475000Y-83575000D01*
G75*
G02*
X172275000Y-83775000I-200000J0D01*
G01*
X171875000Y-83775000D01*
G75*
G02*
X171675000Y-83575000I0J200000D01*
G01*
G37*
G04 #@! TD.AperFunction*
D12*
X180500000Y-89240000D03*
D13*
X180500000Y-86700000D03*
D14*
X182450000Y-77200000D03*
X182450000Y-72950000D03*
X182450000Y-81450000D03*
D12*
X158800000Y-78460000D03*
X158800000Y-81000000D03*
D13*
X158800000Y-83540000D03*
D15*
X178600000Y-77000000D03*
X179300000Y-76300000D03*
X179800000Y-79500000D03*
D16*
X173424992Y-85075008D03*
D15*
X181200000Y-78600000D03*
X180100000Y-75800000D03*
X183400000Y-75800000D03*
X182300000Y-75800000D03*
X182300000Y-78600000D03*
X179800000Y-78600000D03*
X183400000Y-78600000D03*
D16*
X169400000Y-77200000D03*
D15*
X178000000Y-77800000D03*
X178900000Y-79800000D03*
X176700000Y-79800000D03*
D16*
X171200000Y-81700000D03*
D15*
X174800000Y-77800000D03*
D16*
X162524994Y-82675006D03*
X174579986Y-83301971D03*
D15*
X181200000Y-75800000D03*
X176400000Y-77800000D03*
D16*
X173100000Y-77899998D03*
D15*
X178000000Y-79800000D03*
D16*
X167000000Y-86999990D03*
X177400000Y-82000000D03*
D17*
X172500000Y-85075000D02*
X173424984Y-85075000D01*
X173424984Y-85075000D02*
X173424992Y-85075008D01*
X167000000Y-86000000D02*
X167000000Y-86999990D01*
X176480000Y-82000000D02*
X177400000Y-82000000D01*
X170280000Y-81700000D02*
X171200000Y-81700000D01*
X174578015Y-83300000D02*
X174579986Y-83301971D01*
X173100000Y-78990000D02*
X173100000Y-77899998D01*
X162525000Y-82675000D02*
X162524994Y-82675006D01*
X173725000Y-83300000D02*
X174578015Y-83300000D01*
X169400000Y-78120000D02*
X169400000Y-77200000D01*
X162525000Y-81705000D02*
X162525000Y-82675000D01*
X165500000Y-87400000D02*
X166850000Y-88750000D01*
X175320001Y-82000000D02*
X174440001Y-82000000D01*
X169315000Y-79165000D02*
X169400000Y-79080000D01*
X167475000Y-79165000D02*
X169315000Y-79165000D01*
X178550000Y-88750000D02*
X179040000Y-89240000D01*
X179040000Y-89240000D02*
X180500000Y-89240000D01*
X165500000Y-80000000D02*
X165500000Y-83300000D01*
X175520000Y-88580000D02*
X175350000Y-88750000D01*
X174440001Y-82000000D02*
X174050000Y-81609999D01*
X167475000Y-79165000D02*
X166335000Y-79165000D01*
X175350000Y-88750000D02*
X178550000Y-88750000D01*
X166335000Y-79165000D02*
X165500000Y-80000000D01*
X167275000Y-83300000D02*
X165500000Y-83300000D01*
X175520000Y-82000000D02*
X175520000Y-88580000D01*
X165500000Y-83300000D02*
X165500000Y-87400000D01*
X166850000Y-88750000D02*
X175350000Y-88750000D01*
X164125000Y-77275000D02*
X163505000Y-77895000D01*
X163505000Y-77895000D02*
X162525000Y-77895000D01*
X164125000Y-76000000D02*
X164125000Y-77275000D01*
X166495000Y-77895000D02*
X167475000Y-77895000D01*
X165875000Y-76000000D02*
X165875000Y-77275000D01*
X165875000Y-77275000D02*
X166495000Y-77895000D01*
X172150000Y-83225000D02*
X172075000Y-83300000D01*
X172150000Y-81609999D02*
X172150000Y-80814998D01*
X172150000Y-80814998D02*
X172539998Y-80425000D01*
X172150000Y-81609999D02*
X172150000Y-83225000D01*
X172539998Y-80425000D02*
X175600000Y-80425000D01*
D18*
X177150000Y-78775000D02*
X177175000Y-78800000D01*
X175600000Y-78775000D02*
X177150000Y-78775000D01*
X175600000Y-78775000D02*
X174265000Y-78775000D01*
D17*
X174265000Y-78775000D02*
X174050000Y-78990001D01*
X162525000Y-79165000D02*
X159655000Y-79165000D01*
X159655000Y-79165000D02*
X158950000Y-78460000D01*
X162525000Y-80435000D02*
X159515000Y-80435000D01*
X159515000Y-80435000D02*
X158950000Y-81000000D01*
X170590000Y-80435000D02*
X170600000Y-80425000D01*
X167475000Y-80435000D02*
X170590000Y-80435000D01*
X169315000Y-81705000D02*
X169320000Y-81700000D01*
X170675000Y-85050000D02*
X170700000Y-85075000D01*
X169200000Y-85050000D02*
X170675000Y-85050000D01*
X169320000Y-81700000D02*
X169320000Y-82905000D01*
X169320000Y-82905000D02*
X168925000Y-83300000D01*
X168925000Y-83500000D02*
X168925000Y-84975000D01*
X168925000Y-84975000D02*
X169000000Y-85050000D01*
X167475000Y-81705000D02*
X169315000Y-81705000D01*
X170600000Y-78775000D02*
X171935000Y-78775000D01*
X171935000Y-78775000D02*
X172150000Y-78990000D01*
X170700000Y-86725000D02*
X172500000Y-86725000D01*
X170475000Y-86950000D02*
X170700000Y-86725000D01*
X170700000Y-86725000D02*
X170700000Y-86675000D01*
X169200000Y-86950000D02*
X170475000Y-86950000D01*
D18*
X179600000Y-77200000D02*
X182450000Y-77200000D01*
X178825000Y-77975000D02*
X179600000Y-77200000D01*
X178825000Y-78800000D02*
X178825000Y-77975000D01*
D19*
X184470826Y-71771399D02*
X182683750Y-71773000D01*
X182577000Y-71879750D01*
X182577000Y-72823000D01*
X182597000Y-72823000D01*
X182597000Y-73077000D01*
X182577000Y-73077000D01*
X182577000Y-74020250D01*
X182683750Y-74127000D01*
X184457041Y-74128589D01*
X184445798Y-76051080D01*
X179910000Y-76051080D01*
X179832175Y-76058745D01*
X179757340Y-76081446D01*
X179688372Y-76118310D01*
X179627921Y-76167921D01*
X179578310Y-76228372D01*
X179541446Y-76297340D01*
X179518745Y-76372175D01*
X179511080Y-76450000D01*
X179511080Y-76553604D01*
X179472185Y-76557435D01*
X179410735Y-76576076D01*
X179349283Y-76594717D01*
X179236016Y-76655259D01*
X179136736Y-76736736D01*
X179116320Y-76761613D01*
X178386614Y-77491320D01*
X178361737Y-77511736D01*
X178280260Y-77611016D01*
X178265628Y-77638391D01*
X178219717Y-77724284D01*
X178182435Y-77847186D01*
X178169846Y-77975000D01*
X178173000Y-78007022D01*
X178173000Y-78254722D01*
X178136654Y-78322720D01*
X178106575Y-78421879D01*
X178096418Y-78525000D01*
X178096418Y-79075000D01*
X178106575Y-79178121D01*
X178136654Y-79277280D01*
X178185500Y-79368664D01*
X178251236Y-79448764D01*
X178331336Y-79514500D01*
X178422720Y-79563346D01*
X178521879Y-79593425D01*
X178625000Y-79603582D01*
X179025000Y-79603582D01*
X179128121Y-79593425D01*
X179227280Y-79563346D01*
X179318664Y-79514500D01*
X179398764Y-79448764D01*
X179464500Y-79368664D01*
X179513346Y-79277280D01*
X179543425Y-79178121D01*
X179553582Y-79075000D01*
X179553582Y-78525000D01*
X179543425Y-78421879D01*
X179513346Y-78322720D01*
X179477000Y-78254722D01*
X179477000Y-78245066D01*
X179568602Y-78153465D01*
X179578310Y-78171628D01*
X179627921Y-78232079D01*
X179688372Y-78281690D01*
X179757340Y-78318554D01*
X179832175Y-78341255D01*
X179910000Y-78348920D01*
X184432361Y-78348920D01*
X184421118Y-80271444D01*
X182683750Y-80273000D01*
X182577000Y-80379750D01*
X182577000Y-81323000D01*
X182597000Y-81323000D01*
X182597000Y-81577000D01*
X182577000Y-81577000D01*
X182577000Y-82520250D01*
X182683750Y-82627000D01*
X184407333Y-82628544D01*
X184373740Y-88373000D01*
X181297530Y-88373000D01*
X181250294Y-88325764D01*
X181057519Y-88196956D01*
X180843318Y-88108231D01*
X180615924Y-88063000D01*
X180384076Y-88063000D01*
X180156682Y-88108231D01*
X179942481Y-88196956D01*
X179749706Y-88325764D01*
X179702470Y-88373000D01*
X178989001Y-88373000D01*
X178978037Y-88362036D01*
X178959974Y-88340026D01*
X178872115Y-88267921D01*
X178771876Y-88214343D01*
X178707770Y-88194897D01*
X178663111Y-88181349D01*
X178608045Y-88175926D01*
X178578336Y-88173000D01*
X178578331Y-88173000D01*
X178550000Y-88170210D01*
X178549281Y-88170281D01*
X178484119Y-88090881D01*
X178396443Y-88018927D01*
X178296414Y-87965460D01*
X178187876Y-87932535D01*
X178075000Y-87921418D01*
X177125000Y-87921418D01*
X177012124Y-87932535D01*
X176903586Y-87965460D01*
X176803557Y-88018927D01*
X176715881Y-88090881D01*
X176648488Y-88173000D01*
X176427000Y-88173000D01*
X176427000Y-87350000D01*
X176445934Y-87350000D01*
X176454178Y-87433707D01*
X176478595Y-87514196D01*
X176518245Y-87588376D01*
X176571605Y-87653395D01*
X176636624Y-87706755D01*
X176710804Y-87746405D01*
X176791293Y-87770822D01*
X176875000Y-87779066D01*
X177366250Y-87777000D01*
X177473000Y-87670250D01*
X177473000Y-86977000D01*
X177727000Y-86977000D01*
X177727000Y-87670250D01*
X177833750Y-87777000D01*
X178325000Y-87779066D01*
X178408707Y-87770822D01*
X178489196Y-87746405D01*
X178563376Y-87706755D01*
X178628395Y-87653395D01*
X178681755Y-87588376D01*
X178702267Y-87550000D01*
X179220934Y-87550000D01*
X179229178Y-87633707D01*
X179253595Y-87714196D01*
X179293245Y-87788376D01*
X179346605Y-87853395D01*
X179411624Y-87906755D01*
X179485804Y-87946405D01*
X179566293Y-87970822D01*
X179650000Y-87979066D01*
X180266250Y-87977000D01*
X180373000Y-87870250D01*
X180373000Y-86827000D01*
X180627000Y-86827000D01*
X180627000Y-87870250D01*
X180733750Y-87977000D01*
X181350000Y-87979066D01*
X181433707Y-87970822D01*
X181514196Y-87946405D01*
X181588376Y-87906755D01*
X181653395Y-87853395D01*
X181706755Y-87788376D01*
X181746405Y-87714196D01*
X181770822Y-87633707D01*
X181779066Y-87550000D01*
X181777000Y-86933750D01*
X181670250Y-86827000D01*
X180627000Y-86827000D01*
X180373000Y-86827000D01*
X179329750Y-86827000D01*
X179223000Y-86933750D01*
X179220934Y-87550000D01*
X178702267Y-87550000D01*
X178721405Y-87514196D01*
X178745822Y-87433707D01*
X178754066Y-87350000D01*
X178752000Y-87083750D01*
X178645250Y-86977000D01*
X177727000Y-86977000D01*
X177473000Y-86977000D01*
X176554750Y-86977000D01*
X176448000Y-87083750D01*
X176445934Y-87350000D01*
X176427000Y-87350000D01*
X176427000Y-86350000D01*
X176445934Y-86350000D01*
X176448000Y-86616250D01*
X176554750Y-86723000D01*
X177473000Y-86723000D01*
X177473000Y-86029750D01*
X177727000Y-86029750D01*
X177727000Y-86723000D01*
X178645250Y-86723000D01*
X178752000Y-86616250D01*
X178754066Y-86350000D01*
X178745822Y-86266293D01*
X178721405Y-86185804D01*
X178681755Y-86111624D01*
X178628395Y-86046605D01*
X178563376Y-85993245D01*
X178489196Y-85953595D01*
X178408707Y-85929178D01*
X178325000Y-85920934D01*
X177833750Y-85923000D01*
X177727000Y-86029750D01*
X177473000Y-86029750D01*
X177366250Y-85923000D01*
X176875000Y-85920934D01*
X176791293Y-85929178D01*
X176710804Y-85953595D01*
X176636624Y-85993245D01*
X176571605Y-86046605D01*
X176518245Y-86111624D01*
X176478595Y-86185804D01*
X176454178Y-86266293D01*
X176445934Y-86350000D01*
X176427000Y-86350000D01*
X176427000Y-85850000D01*
X179220934Y-85850000D01*
X179223000Y-86466250D01*
X179329750Y-86573000D01*
X180373000Y-86573000D01*
X180373000Y-85529750D01*
X180627000Y-85529750D01*
X180627000Y-86573000D01*
X181670250Y-86573000D01*
X181777000Y-86466250D01*
X181779066Y-85850000D01*
X181770822Y-85766293D01*
X181746405Y-85685804D01*
X181706755Y-85611624D01*
X181653395Y-85546605D01*
X181588376Y-85493245D01*
X181514196Y-85453595D01*
X181433707Y-85429178D01*
X181350000Y-85420934D01*
X180733750Y-85423000D01*
X180627000Y-85529750D01*
X180373000Y-85529750D01*
X180266250Y-85423000D01*
X179650000Y-85420934D01*
X179566293Y-85429178D01*
X179485804Y-85453595D01*
X179411624Y-85493245D01*
X179346605Y-85546605D01*
X179293245Y-85611624D01*
X179253595Y-85685804D01*
X179229178Y-85766293D01*
X179220934Y-85850000D01*
X176427000Y-85850000D01*
X176427000Y-82127000D01*
X176607000Y-82127000D01*
X176607000Y-82630250D01*
X176713750Y-82737000D01*
X176760000Y-82739066D01*
X176843707Y-82730822D01*
X176924196Y-82706405D01*
X176998376Y-82666755D01*
X177063395Y-82613395D01*
X177116755Y-82548376D01*
X177156405Y-82474196D01*
X177180822Y-82393707D01*
X177189066Y-82310000D01*
X177187000Y-82233750D01*
X177153250Y-82200000D01*
X179480934Y-82200000D01*
X179489178Y-82283707D01*
X179513595Y-82364196D01*
X179553245Y-82438376D01*
X179606605Y-82503395D01*
X179671624Y-82556755D01*
X179745804Y-82596405D01*
X179826293Y-82620822D01*
X179910000Y-82629066D01*
X182216250Y-82627000D01*
X182323000Y-82520250D01*
X182323000Y-81577000D01*
X179589750Y-81577000D01*
X179483000Y-81683750D01*
X179480934Y-82200000D01*
X177153250Y-82200000D01*
X177080250Y-82127000D01*
X176607000Y-82127000D01*
X176427000Y-82127000D01*
X176427000Y-81369750D01*
X176607000Y-81369750D01*
X176607000Y-81873000D01*
X177080250Y-81873000D01*
X177187000Y-81766250D01*
X177189066Y-81690000D01*
X177180822Y-81606293D01*
X177156405Y-81525804D01*
X177116755Y-81451624D01*
X177063395Y-81386605D01*
X176998376Y-81333245D01*
X176924196Y-81293595D01*
X176843707Y-81269178D01*
X176760000Y-81260934D01*
X176713750Y-81263000D01*
X176607000Y-81369750D01*
X176427000Y-81369750D01*
X176427000Y-80700000D01*
X179480934Y-80700000D01*
X179483000Y-81216250D01*
X179589750Y-81323000D01*
X182323000Y-81323000D01*
X182323000Y-80379750D01*
X182216250Y-80273000D01*
X179910000Y-80270934D01*
X179826293Y-80279178D01*
X179745804Y-80303595D01*
X179671624Y-80343245D01*
X179606605Y-80396605D01*
X179553245Y-80461624D01*
X179513595Y-80535804D01*
X179489178Y-80616293D01*
X179480934Y-80700000D01*
X176427000Y-80700000D01*
X176427000Y-79427000D01*
X176583375Y-79427000D01*
X176601236Y-79448764D01*
X176681336Y-79514500D01*
X176772720Y-79563346D01*
X176871879Y-79593425D01*
X176975000Y-79603582D01*
X177375000Y-79603582D01*
X177478121Y-79593425D01*
X177577280Y-79563346D01*
X177668664Y-79514500D01*
X177748764Y-79448764D01*
X177814500Y-79368664D01*
X177863346Y-79277280D01*
X177893425Y-79178121D01*
X177903582Y-79075000D01*
X177903582Y-78525000D01*
X177893425Y-78421879D01*
X177863346Y-78322720D01*
X177814500Y-78231336D01*
X177748764Y-78151236D01*
X177668664Y-78085500D01*
X177577280Y-78036654D01*
X177478121Y-78006575D01*
X177375000Y-77996418D01*
X176975000Y-77996418D01*
X176871879Y-78006575D01*
X176772720Y-78036654D01*
X176681336Y-78085500D01*
X176635642Y-78123000D01*
X176427000Y-78123000D01*
X176427000Y-78100000D01*
X176424560Y-78075224D01*
X176417333Y-78051399D01*
X176405597Y-78029443D01*
X176389803Y-78010197D01*
X176370557Y-77994403D01*
X176348601Y-77982667D01*
X176324776Y-77975440D01*
X176300000Y-77973000D01*
X173554270Y-77973000D01*
X173508707Y-77959178D01*
X173425000Y-77950934D01*
X173333750Y-77953000D01*
X173313750Y-77973000D01*
X172886250Y-77973000D01*
X172866250Y-77953000D01*
X172775000Y-77950934D01*
X172691293Y-77959178D01*
X172645730Y-77973000D01*
X170050250Y-77973000D01*
X170137000Y-77886250D01*
X170139066Y-77840000D01*
X170130822Y-77756293D01*
X170106405Y-77675804D01*
X170066755Y-77601624D01*
X170013395Y-77536605D01*
X169948376Y-77483245D01*
X169874196Y-77443595D01*
X169793707Y-77419178D01*
X169710000Y-77410934D01*
X169633750Y-77413000D01*
X169527000Y-77519750D01*
X169527000Y-77973000D01*
X169273000Y-77973000D01*
X169273000Y-77519750D01*
X169166250Y-77413000D01*
X169127000Y-77411937D01*
X169127000Y-73700000D01*
X179480934Y-73700000D01*
X179489178Y-73783707D01*
X179513595Y-73864196D01*
X179553245Y-73938376D01*
X179606605Y-74003395D01*
X179671624Y-74056755D01*
X179745804Y-74096405D01*
X179826293Y-74120822D01*
X179910000Y-74129066D01*
X182216250Y-74127000D01*
X182323000Y-74020250D01*
X182323000Y-73077000D01*
X179589750Y-73077000D01*
X179483000Y-73183750D01*
X179480934Y-73700000D01*
X169127000Y-73700000D01*
X169127000Y-72200000D01*
X179480934Y-72200000D01*
X179483000Y-72716250D01*
X179589750Y-72823000D01*
X182323000Y-72823000D01*
X182323000Y-71879750D01*
X182216250Y-71773000D01*
X179910000Y-71770934D01*
X179826293Y-71779178D01*
X179745804Y-71803595D01*
X179671624Y-71843245D01*
X179606605Y-71896605D01*
X179553245Y-71961624D01*
X179513595Y-72035804D01*
X179489178Y-72116293D01*
X179480934Y-72200000D01*
X169127000Y-72200000D01*
X169127000Y-71527000D01*
X184472255Y-71527000D01*
X184470826Y-71771399D01*
G04 #@! TA.AperFunction,Conductor*
D20*
G36*
X184470826Y-71771399D02*
G01*
X182683750Y-71773000D01*
X182577000Y-71879750D01*
X182577000Y-72823000D01*
X182597000Y-72823000D01*
X182597000Y-73077000D01*
X182577000Y-73077000D01*
X182577000Y-74020250D01*
X182683750Y-74127000D01*
X184457041Y-74128589D01*
X184445798Y-76051080D01*
X179910000Y-76051080D01*
X179832175Y-76058745D01*
X179757340Y-76081446D01*
X179688372Y-76118310D01*
X179627921Y-76167921D01*
X179578310Y-76228372D01*
X179541446Y-76297340D01*
X179518745Y-76372175D01*
X179511080Y-76450000D01*
X179511080Y-76553604D01*
X179472185Y-76557435D01*
X179410735Y-76576076D01*
X179349283Y-76594717D01*
X179236016Y-76655259D01*
X179136736Y-76736736D01*
X179116320Y-76761613D01*
X178386614Y-77491320D01*
X178361737Y-77511736D01*
X178280260Y-77611016D01*
X178265628Y-77638391D01*
X178219717Y-77724284D01*
X178182435Y-77847186D01*
X178169846Y-77975000D01*
X178173000Y-78007022D01*
X178173000Y-78254722D01*
X178136654Y-78322720D01*
X178106575Y-78421879D01*
X178096418Y-78525000D01*
X178096418Y-79075000D01*
X178106575Y-79178121D01*
X178136654Y-79277280D01*
X178185500Y-79368664D01*
X178251236Y-79448764D01*
X178331336Y-79514500D01*
X178422720Y-79563346D01*
X178521879Y-79593425D01*
X178625000Y-79603582D01*
X179025000Y-79603582D01*
X179128121Y-79593425D01*
X179227280Y-79563346D01*
X179318664Y-79514500D01*
X179398764Y-79448764D01*
X179464500Y-79368664D01*
X179513346Y-79277280D01*
X179543425Y-79178121D01*
X179553582Y-79075000D01*
X179553582Y-78525000D01*
X179543425Y-78421879D01*
X179513346Y-78322720D01*
X179477000Y-78254722D01*
X179477000Y-78245066D01*
X179568602Y-78153465D01*
X179578310Y-78171628D01*
X179627921Y-78232079D01*
X179688372Y-78281690D01*
X179757340Y-78318554D01*
X179832175Y-78341255D01*
X179910000Y-78348920D01*
X184432361Y-78348920D01*
X184421118Y-80271444D01*
X182683750Y-80273000D01*
X182577000Y-80379750D01*
X182577000Y-81323000D01*
X182597000Y-81323000D01*
X182597000Y-81577000D01*
X182577000Y-81577000D01*
X182577000Y-82520250D01*
X182683750Y-82627000D01*
X184407333Y-82628544D01*
X184373740Y-88373000D01*
X181297530Y-88373000D01*
X181250294Y-88325764D01*
X181057519Y-88196956D01*
X180843318Y-88108231D01*
X180615924Y-88063000D01*
X180384076Y-88063000D01*
X180156682Y-88108231D01*
X179942481Y-88196956D01*
X179749706Y-88325764D01*
X179702470Y-88373000D01*
X178989001Y-88373000D01*
X178978037Y-88362036D01*
X178959974Y-88340026D01*
X178872115Y-88267921D01*
X178771876Y-88214343D01*
X178707770Y-88194897D01*
X178663111Y-88181349D01*
X178608045Y-88175926D01*
X178578336Y-88173000D01*
X178578331Y-88173000D01*
X178550000Y-88170210D01*
X178549281Y-88170281D01*
X178484119Y-88090881D01*
X178396443Y-88018927D01*
X178296414Y-87965460D01*
X178187876Y-87932535D01*
X178075000Y-87921418D01*
X177125000Y-87921418D01*
X177012124Y-87932535D01*
X176903586Y-87965460D01*
X176803557Y-88018927D01*
X176715881Y-88090881D01*
X176648488Y-88173000D01*
X176427000Y-88173000D01*
X176427000Y-87350000D01*
X176445934Y-87350000D01*
X176454178Y-87433707D01*
X176478595Y-87514196D01*
X176518245Y-87588376D01*
X176571605Y-87653395D01*
X176636624Y-87706755D01*
X176710804Y-87746405D01*
X176791293Y-87770822D01*
X176875000Y-87779066D01*
X177366250Y-87777000D01*
X177473000Y-87670250D01*
X177473000Y-86977000D01*
X177727000Y-86977000D01*
X177727000Y-87670250D01*
X177833750Y-87777000D01*
X178325000Y-87779066D01*
X178408707Y-87770822D01*
X178489196Y-87746405D01*
X178563376Y-87706755D01*
X178628395Y-87653395D01*
X178681755Y-87588376D01*
X178702267Y-87550000D01*
X179220934Y-87550000D01*
X179229178Y-87633707D01*
X179253595Y-87714196D01*
X179293245Y-87788376D01*
X179346605Y-87853395D01*
X179411624Y-87906755D01*
X179485804Y-87946405D01*
X179566293Y-87970822D01*
X179650000Y-87979066D01*
X180266250Y-87977000D01*
X180373000Y-87870250D01*
X180373000Y-86827000D01*
X180627000Y-86827000D01*
X180627000Y-87870250D01*
X180733750Y-87977000D01*
X181350000Y-87979066D01*
X181433707Y-87970822D01*
X181514196Y-87946405D01*
X181588376Y-87906755D01*
X181653395Y-87853395D01*
X181706755Y-87788376D01*
X181746405Y-87714196D01*
X181770822Y-87633707D01*
X181779066Y-87550000D01*
X181777000Y-86933750D01*
X181670250Y-86827000D01*
X180627000Y-86827000D01*
X180373000Y-86827000D01*
X179329750Y-86827000D01*
X179223000Y-86933750D01*
X179220934Y-87550000D01*
X178702267Y-87550000D01*
X178721405Y-87514196D01*
X178745822Y-87433707D01*
X178754066Y-87350000D01*
X178752000Y-87083750D01*
X178645250Y-86977000D01*
X177727000Y-86977000D01*
X177473000Y-86977000D01*
X176554750Y-86977000D01*
X176448000Y-87083750D01*
X176445934Y-87350000D01*
X176427000Y-87350000D01*
X176427000Y-86350000D01*
X176445934Y-86350000D01*
X176448000Y-86616250D01*
X176554750Y-86723000D01*
X177473000Y-86723000D01*
X177473000Y-86029750D01*
X177727000Y-86029750D01*
X177727000Y-86723000D01*
X178645250Y-86723000D01*
X178752000Y-86616250D01*
X178754066Y-86350000D01*
X178745822Y-86266293D01*
X178721405Y-86185804D01*
X178681755Y-86111624D01*
X178628395Y-86046605D01*
X178563376Y-85993245D01*
X178489196Y-85953595D01*
X178408707Y-85929178D01*
X178325000Y-85920934D01*
X177833750Y-85923000D01*
X177727000Y-86029750D01*
X177473000Y-86029750D01*
X177366250Y-85923000D01*
X176875000Y-85920934D01*
X176791293Y-85929178D01*
X176710804Y-85953595D01*
X176636624Y-85993245D01*
X176571605Y-86046605D01*
X176518245Y-86111624D01*
X176478595Y-86185804D01*
X176454178Y-86266293D01*
X176445934Y-86350000D01*
X176427000Y-86350000D01*
X176427000Y-85850000D01*
X179220934Y-85850000D01*
X179223000Y-86466250D01*
X179329750Y-86573000D01*
X180373000Y-86573000D01*
X180373000Y-85529750D01*
X180627000Y-85529750D01*
X180627000Y-86573000D01*
X181670250Y-86573000D01*
X181777000Y-86466250D01*
X181779066Y-85850000D01*
X181770822Y-85766293D01*
X181746405Y-85685804D01*
X181706755Y-85611624D01*
X181653395Y-85546605D01*
X181588376Y-85493245D01*
X181514196Y-85453595D01*
X181433707Y-85429178D01*
X181350000Y-85420934D01*
X180733750Y-85423000D01*
X180627000Y-85529750D01*
X180373000Y-85529750D01*
X180266250Y-85423000D01*
X179650000Y-85420934D01*
X179566293Y-85429178D01*
X179485804Y-85453595D01*
X179411624Y-85493245D01*
X179346605Y-85546605D01*
X179293245Y-85611624D01*
X179253595Y-85685804D01*
X179229178Y-85766293D01*
X179220934Y-85850000D01*
X176427000Y-85850000D01*
X176427000Y-82127000D01*
X176607000Y-82127000D01*
X176607000Y-82630250D01*
X176713750Y-82737000D01*
X176760000Y-82739066D01*
X176843707Y-82730822D01*
X176924196Y-82706405D01*
X176998376Y-82666755D01*
X177063395Y-82613395D01*
X177116755Y-82548376D01*
X177156405Y-82474196D01*
X177180822Y-82393707D01*
X177189066Y-82310000D01*
X177187000Y-82233750D01*
X177153250Y-82200000D01*
X179480934Y-82200000D01*
X179489178Y-82283707D01*
X179513595Y-82364196D01*
X179553245Y-82438376D01*
X179606605Y-82503395D01*
X179671624Y-82556755D01*
X179745804Y-82596405D01*
X179826293Y-82620822D01*
X179910000Y-82629066D01*
X182216250Y-82627000D01*
X182323000Y-82520250D01*
X182323000Y-81577000D01*
X179589750Y-81577000D01*
X179483000Y-81683750D01*
X179480934Y-82200000D01*
X177153250Y-82200000D01*
X177080250Y-82127000D01*
X176607000Y-82127000D01*
X176427000Y-82127000D01*
X176427000Y-81369750D01*
X176607000Y-81369750D01*
X176607000Y-81873000D01*
X177080250Y-81873000D01*
X177187000Y-81766250D01*
X177189066Y-81690000D01*
X177180822Y-81606293D01*
X177156405Y-81525804D01*
X177116755Y-81451624D01*
X177063395Y-81386605D01*
X176998376Y-81333245D01*
X176924196Y-81293595D01*
X176843707Y-81269178D01*
X176760000Y-81260934D01*
X176713750Y-81263000D01*
X176607000Y-81369750D01*
X176427000Y-81369750D01*
X176427000Y-80700000D01*
X179480934Y-80700000D01*
X179483000Y-81216250D01*
X179589750Y-81323000D01*
X182323000Y-81323000D01*
X182323000Y-80379750D01*
X182216250Y-80273000D01*
X179910000Y-80270934D01*
X179826293Y-80279178D01*
X179745804Y-80303595D01*
X179671624Y-80343245D01*
X179606605Y-80396605D01*
X179553245Y-80461624D01*
X179513595Y-80535804D01*
X179489178Y-80616293D01*
X179480934Y-80700000D01*
X176427000Y-80700000D01*
X176427000Y-79427000D01*
X176583375Y-79427000D01*
X176601236Y-79448764D01*
X176681336Y-79514500D01*
X176772720Y-79563346D01*
X176871879Y-79593425D01*
X176975000Y-79603582D01*
X177375000Y-79603582D01*
X177478121Y-79593425D01*
X177577280Y-79563346D01*
X177668664Y-79514500D01*
X177748764Y-79448764D01*
X177814500Y-79368664D01*
X177863346Y-79277280D01*
X177893425Y-79178121D01*
X177903582Y-79075000D01*
X177903582Y-78525000D01*
X177893425Y-78421879D01*
X177863346Y-78322720D01*
X177814500Y-78231336D01*
X177748764Y-78151236D01*
X177668664Y-78085500D01*
X177577280Y-78036654D01*
X177478121Y-78006575D01*
X177375000Y-77996418D01*
X176975000Y-77996418D01*
X176871879Y-78006575D01*
X176772720Y-78036654D01*
X176681336Y-78085500D01*
X176635642Y-78123000D01*
X176427000Y-78123000D01*
X176427000Y-78100000D01*
X176424560Y-78075224D01*
X176417333Y-78051399D01*
X176405597Y-78029443D01*
X176389803Y-78010197D01*
X176370557Y-77994403D01*
X176348601Y-77982667D01*
X176324776Y-77975440D01*
X176300000Y-77973000D01*
X173554270Y-77973000D01*
X173508707Y-77959178D01*
X173425000Y-77950934D01*
X173333750Y-77953000D01*
X173313750Y-77973000D01*
X172886250Y-77973000D01*
X172866250Y-77953000D01*
X172775000Y-77950934D01*
X172691293Y-77959178D01*
X172645730Y-77973000D01*
X170050250Y-77973000D01*
X170137000Y-77886250D01*
X170139066Y-77840000D01*
X170130822Y-77756293D01*
X170106405Y-77675804D01*
X170066755Y-77601624D01*
X170013395Y-77536605D01*
X169948376Y-77483245D01*
X169874196Y-77443595D01*
X169793707Y-77419178D01*
X169710000Y-77410934D01*
X169633750Y-77413000D01*
X169527000Y-77519750D01*
X169527000Y-77973000D01*
X169273000Y-77973000D01*
X169273000Y-77519750D01*
X169166250Y-77413000D01*
X169127000Y-77411937D01*
X169127000Y-73700000D01*
X179480934Y-73700000D01*
X179489178Y-73783707D01*
X179513595Y-73864196D01*
X179553245Y-73938376D01*
X179606605Y-74003395D01*
X179671624Y-74056755D01*
X179745804Y-74096405D01*
X179826293Y-74120822D01*
X179910000Y-74129066D01*
X182216250Y-74127000D01*
X182323000Y-74020250D01*
X182323000Y-73077000D01*
X179589750Y-73077000D01*
X179483000Y-73183750D01*
X179480934Y-73700000D01*
X169127000Y-73700000D01*
X169127000Y-72200000D01*
X179480934Y-72200000D01*
X179483000Y-72716250D01*
X179589750Y-72823000D01*
X182323000Y-72823000D01*
X182323000Y-71879750D01*
X182216250Y-71773000D01*
X179910000Y-71770934D01*
X179826293Y-71779178D01*
X179745804Y-71803595D01*
X179671624Y-71843245D01*
X179606605Y-71896605D01*
X179553245Y-71961624D01*
X179513595Y-72035804D01*
X179489178Y-72116293D01*
X179480934Y-72200000D01*
X169127000Y-72200000D01*
X169127000Y-71527000D01*
X184472255Y-71527000D01*
X184470826Y-71771399D01*
G37*
G04 #@! TD.AperFunction*
M02*
