G04 #@! TF.GenerationSoftware,KiCad,Pcbnew,(5.1.9)-1*
G04 #@! TF.CreationDate,2021-04-02T20:51:07-05:00*
G04 #@! TF.ProjectId,coax-probe,636f6178-2d70-4726-9f62-652e6b696361,rev?*
G04 #@! TF.SameCoordinates,Original*
G04 #@! TF.FileFunction,Legend,Bot*
G04 #@! TF.FilePolarity,Positive*
%FSLAX46Y46*%
G04 Gerber Fmt 4.6, Leading zero omitted, Abs format (unit mm)*
G04 Created by KiCad (PCBNEW (5.1.9)-1) date 2021-04-02 20:51:07*
%MOMM*%
%LPD*%
G01*
G04 APERTURE LIST*
%ADD10C,0.150000*%
%ADD11C,0.157000*%
G04 APERTURE END LIST*
D10*
X176150000Y-72816666D02*
X175816666Y-72816666D01*
X176216666Y-73016666D02*
X175983333Y-72316666D01*
X175750000Y-73016666D01*
X175216666Y-72983333D02*
X175283333Y-73016666D01*
X175416666Y-73016666D01*
X175483333Y-72983333D01*
X175516666Y-72950000D01*
X175550000Y-72883333D01*
X175550000Y-72683333D01*
X175516666Y-72616666D01*
X175483333Y-72583333D01*
X175416666Y-72550000D01*
X175283333Y-72550000D01*
X175216666Y-72583333D01*
X175016666Y-72550000D02*
X174750000Y-72550000D01*
X174916666Y-72316666D02*
X174916666Y-72916666D01*
X174883333Y-72983333D01*
X174816666Y-73016666D01*
X174750000Y-73016666D01*
X174516666Y-73016666D02*
X174516666Y-72550000D01*
X174516666Y-72316666D02*
X174550000Y-72350000D01*
X174516666Y-72383333D01*
X174483333Y-72350000D01*
X174516666Y-72316666D01*
X174516666Y-72383333D01*
X174250000Y-72550000D02*
X174083333Y-73016666D01*
X173916666Y-72550000D01*
X173383333Y-72983333D02*
X173450000Y-73016666D01*
X173583333Y-73016666D01*
X173650000Y-72983333D01*
X173683333Y-72916666D01*
X173683333Y-72650000D01*
X173650000Y-72583333D01*
X173583333Y-72550000D01*
X173450000Y-72550000D01*
X173383333Y-72583333D01*
X173350000Y-72650000D01*
X173350000Y-72716666D01*
X173683333Y-72783333D01*
X172516666Y-73016666D02*
X172516666Y-72316666D01*
X172350000Y-72316666D01*
X172250000Y-72350000D01*
X172183333Y-72416666D01*
X172150000Y-72483333D01*
X172116666Y-72616666D01*
X172116666Y-72716666D01*
X172150000Y-72850000D01*
X172183333Y-72916666D01*
X172250000Y-72983333D01*
X172350000Y-73016666D01*
X172516666Y-73016666D01*
X171816666Y-73016666D02*
X171816666Y-72550000D01*
X171816666Y-72316666D02*
X171850000Y-72350000D01*
X171816666Y-72383333D01*
X171783333Y-72350000D01*
X171816666Y-72316666D01*
X171816666Y-72383333D01*
X171583333Y-72550000D02*
X171316666Y-72550000D01*
X171483333Y-73016666D02*
X171483333Y-72416666D01*
X171450000Y-72350000D01*
X171383333Y-72316666D01*
X171316666Y-72316666D01*
X171183333Y-72550000D02*
X170916666Y-72550000D01*
X171083333Y-73016666D02*
X171083333Y-72416666D01*
X171050000Y-72350000D01*
X170983333Y-72316666D01*
X170916666Y-72316666D01*
X170416666Y-72983333D02*
X170483333Y-73016666D01*
X170616666Y-73016666D01*
X170683333Y-72983333D01*
X170716666Y-72916666D01*
X170716666Y-72650000D01*
X170683333Y-72583333D01*
X170616666Y-72550000D01*
X170483333Y-72550000D01*
X170416666Y-72583333D01*
X170383333Y-72650000D01*
X170383333Y-72716666D01*
X170716666Y-72783333D01*
X170083333Y-73016666D02*
X170083333Y-72550000D01*
X170083333Y-72683333D02*
X170050000Y-72616666D01*
X170016666Y-72583333D01*
X169950000Y-72550000D01*
X169883333Y-72550000D01*
X169383333Y-72983333D02*
X169450000Y-73016666D01*
X169583333Y-73016666D01*
X169650000Y-72983333D01*
X169683333Y-72916666D01*
X169683333Y-72650000D01*
X169650000Y-72583333D01*
X169583333Y-72550000D01*
X169450000Y-72550000D01*
X169383333Y-72583333D01*
X169350000Y-72650000D01*
X169350000Y-72716666D01*
X169683333Y-72783333D01*
X169050000Y-72550000D02*
X169050000Y-73016666D01*
X169050000Y-72616666D02*
X169016666Y-72583333D01*
X168950000Y-72550000D01*
X168850000Y-72550000D01*
X168783333Y-72583333D01*
X168750000Y-72650000D01*
X168750000Y-73016666D01*
X168516666Y-72550000D02*
X168250000Y-72550000D01*
X168416666Y-72316666D02*
X168416666Y-72916666D01*
X168383333Y-72983333D01*
X168316666Y-73016666D01*
X168250000Y-73016666D01*
X168016666Y-73016666D02*
X168016666Y-72550000D01*
X168016666Y-72316666D02*
X168050000Y-72350000D01*
X168016666Y-72383333D01*
X167983333Y-72350000D01*
X168016666Y-72316666D01*
X168016666Y-72383333D01*
X167383333Y-73016666D02*
X167383333Y-72650000D01*
X167416666Y-72583333D01*
X167483333Y-72550000D01*
X167616666Y-72550000D01*
X167683333Y-72583333D01*
X167383333Y-72983333D02*
X167450000Y-73016666D01*
X167616666Y-73016666D01*
X167683333Y-72983333D01*
X167716666Y-72916666D01*
X167716666Y-72850000D01*
X167683333Y-72783333D01*
X167616666Y-72750000D01*
X167450000Y-72750000D01*
X167383333Y-72716666D01*
X166950000Y-73016666D02*
X167016666Y-72983333D01*
X167050000Y-72916666D01*
X167050000Y-72316666D01*
X166150000Y-73016666D02*
X166150000Y-72316666D01*
X165883333Y-72316666D01*
X165816666Y-72350000D01*
X165783333Y-72383333D01*
X165750000Y-72450000D01*
X165750000Y-72550000D01*
X165783333Y-72616666D01*
X165816666Y-72650000D01*
X165883333Y-72683333D01*
X166150000Y-72683333D01*
X165450000Y-73016666D02*
X165450000Y-72550000D01*
X165450000Y-72683333D02*
X165416666Y-72616666D01*
X165383333Y-72583333D01*
X165316666Y-72550000D01*
X165250000Y-72550000D01*
X164916666Y-73016666D02*
X164983333Y-72983333D01*
X165016666Y-72950000D01*
X165050000Y-72883333D01*
X165050000Y-72683333D01*
X165016666Y-72616666D01*
X164983333Y-72583333D01*
X164916666Y-72550000D01*
X164816666Y-72550000D01*
X164750000Y-72583333D01*
X164716666Y-72616666D01*
X164683333Y-72683333D01*
X164683333Y-72883333D01*
X164716666Y-72950000D01*
X164750000Y-72983333D01*
X164816666Y-73016666D01*
X164916666Y-73016666D01*
X164383333Y-73016666D02*
X164383333Y-72316666D01*
X164383333Y-72583333D02*
X164316666Y-72550000D01*
X164183333Y-72550000D01*
X164116666Y-72583333D01*
X164083333Y-72616666D01*
X164050000Y-72683333D01*
X164050000Y-72883333D01*
X164083333Y-72950000D01*
X164116666Y-72983333D01*
X164183333Y-73016666D01*
X164316666Y-73016666D01*
X164383333Y-72983333D01*
X163483333Y-72983333D02*
X163550000Y-73016666D01*
X163683333Y-73016666D01*
X163750000Y-72983333D01*
X163783333Y-72916666D01*
X163783333Y-72650000D01*
X163750000Y-72583333D01*
X163683333Y-72550000D01*
X163550000Y-72550000D01*
X163483333Y-72583333D01*
X163450000Y-72650000D01*
X163450000Y-72716666D01*
X163783333Y-72783333D01*
X174333333Y-74216666D02*
X174733333Y-74216666D01*
X174533333Y-74216666D02*
X174533333Y-73516666D01*
X174600000Y-73616666D01*
X174666666Y-73683333D01*
X174733333Y-73716666D01*
X174033333Y-74150000D02*
X174000000Y-74183333D01*
X174033333Y-74216666D01*
X174066666Y-74183333D01*
X174033333Y-74150000D01*
X174033333Y-74216666D01*
X173733333Y-73583333D02*
X173700000Y-73550000D01*
X173633333Y-73516666D01*
X173466666Y-73516666D01*
X173400000Y-73550000D01*
X173366666Y-73583333D01*
X173333333Y-73650000D01*
X173333333Y-73716666D01*
X173366666Y-73816666D01*
X173766666Y-74216666D01*
X173333333Y-74216666D01*
X173033333Y-74216666D02*
X173033333Y-73516666D01*
X172800000Y-74016666D01*
X172566666Y-73516666D01*
X172566666Y-74216666D01*
X172233333Y-74216666D02*
X172233333Y-73516666D01*
X172233333Y-73850000D02*
X171833333Y-73850000D01*
X171833333Y-74216666D02*
X171833333Y-73516666D01*
X171566666Y-73750000D02*
X171200000Y-73750000D01*
X171566666Y-74216666D01*
X171200000Y-74216666D01*
X170200000Y-74483333D02*
X170233333Y-74450000D01*
X170300000Y-74350000D01*
X170333333Y-74283333D01*
X170366666Y-74183333D01*
X170400000Y-74016666D01*
X170400000Y-73883333D01*
X170366666Y-73716666D01*
X170333333Y-73616666D01*
X170300000Y-73550000D01*
X170233333Y-73450000D01*
X170200000Y-73416666D01*
X169566666Y-73550000D02*
X169633333Y-73516666D01*
X169733333Y-73516666D01*
X169833333Y-73550000D01*
X169900000Y-73616666D01*
X169933333Y-73683333D01*
X169966666Y-73816666D01*
X169966666Y-73916666D01*
X169933333Y-74050000D01*
X169900000Y-74116666D01*
X169833333Y-74183333D01*
X169733333Y-74216666D01*
X169666666Y-74216666D01*
X169566666Y-74183333D01*
X169533333Y-74150000D01*
X169533333Y-73916666D01*
X169666666Y-73916666D01*
X169233333Y-73850000D02*
X168700000Y-73850000D01*
X168700000Y-74050000D02*
X169233333Y-74050000D01*
X168000000Y-74216666D02*
X168400000Y-74216666D01*
X168200000Y-74216666D02*
X168200000Y-73516666D01*
X168266666Y-73616666D01*
X168333333Y-73683333D01*
X168400000Y-73716666D01*
X167766666Y-74483333D02*
X167733333Y-74450000D01*
X167666666Y-74350000D01*
X167633333Y-74283333D01*
X167600000Y-74183333D01*
X167566666Y-74016666D01*
X167566666Y-73883333D01*
X167600000Y-73716666D01*
X167633333Y-73616666D01*
X167666666Y-73550000D01*
X167733333Y-73450000D01*
X167766666Y-73416666D01*
X166366666Y-73516666D02*
X166700000Y-73516666D01*
X166733333Y-73850000D01*
X166700000Y-73816666D01*
X166633333Y-73783333D01*
X166466666Y-73783333D01*
X166400000Y-73816666D01*
X166366666Y-73850000D01*
X166333333Y-73916666D01*
X166333333Y-74083333D01*
X166366666Y-74150000D01*
X166400000Y-74183333D01*
X166466666Y-74216666D01*
X166633333Y-74216666D01*
X166700000Y-74183333D01*
X166733333Y-74150000D01*
X165900000Y-73516666D02*
X165833333Y-73516666D01*
X165766666Y-73550000D01*
X165733333Y-73583333D01*
X165700000Y-73650000D01*
X165666666Y-73783333D01*
X165666666Y-73950000D01*
X165700000Y-74083333D01*
X165733333Y-74150000D01*
X165766666Y-74183333D01*
X165833333Y-74216666D01*
X165900000Y-74216666D01*
X165966666Y-74183333D01*
X166000000Y-74150000D01*
X166033333Y-74083333D01*
X166066666Y-73950000D01*
X166066666Y-73783333D01*
X166033333Y-73650000D01*
X166000000Y-73583333D01*
X165966666Y-73550000D01*
X165900000Y-73516666D01*
X165400000Y-74216666D02*
X165233333Y-74216666D01*
X165233333Y-74083333D01*
X165300000Y-74050000D01*
X165366666Y-73983333D01*
X165400000Y-73883333D01*
X165400000Y-73716666D01*
X165366666Y-73616666D01*
X165300000Y-73550000D01*
X165200000Y-73516666D01*
X165066666Y-73516666D01*
X164966666Y-73550000D01*
X164900000Y-73616666D01*
X164866666Y-73716666D01*
X164866666Y-73883333D01*
X164900000Y-73983333D01*
X164966666Y-74050000D01*
X165033333Y-74083333D01*
X165033333Y-74216666D01*
X164866666Y-74216666D01*
D11*
X164386833Y-85707615D02*
X165086833Y-85707615D01*
X164453500Y-84974282D02*
X164420166Y-85007615D01*
X164386833Y-85107615D01*
X164386833Y-85174282D01*
X164420166Y-85274282D01*
X164486833Y-85340948D01*
X164553500Y-85374282D01*
X164686833Y-85407615D01*
X164786833Y-85407615D01*
X164920166Y-85374282D01*
X164986833Y-85340948D01*
X165053500Y-85274282D01*
X165086833Y-85174282D01*
X165086833Y-85107615D01*
X165053500Y-85007615D01*
X165020166Y-84974282D01*
X164386833Y-84674282D02*
X165086833Y-84674282D01*
X164586833Y-84440948D01*
X165086833Y-84207615D01*
X164386833Y-84207615D01*
X164453500Y-83874282D02*
X164420166Y-83840948D01*
X164386833Y-83874282D01*
X164420166Y-83907615D01*
X164453500Y-83874282D01*
X164386833Y-83874282D01*
X164820166Y-83874282D02*
X164786833Y-83840948D01*
X164753500Y-83874282D01*
X164786833Y-83907615D01*
X164820166Y-83874282D01*
X164753500Y-83874282D01*
X164653500Y-83007615D02*
X164653500Y-82474282D01*
X165020166Y-82174282D02*
X165053500Y-82140948D01*
X165086833Y-82074282D01*
X165086833Y-81907615D01*
X165053500Y-81840948D01*
X165020166Y-81807615D01*
X164953500Y-81774282D01*
X164886833Y-81774282D01*
X164786833Y-81807615D01*
X164386833Y-82207615D01*
X164386833Y-81774282D01*
X165086833Y-81574282D02*
X164386833Y-81340948D01*
X165086833Y-81107615D01*
X164653500Y-80874282D02*
X164653500Y-80340948D01*
X165086833Y-80107615D02*
X164386833Y-79874282D01*
X165086833Y-79640948D01*
X164453500Y-79007615D02*
X164420166Y-79040948D01*
X164386833Y-79140948D01*
X164386833Y-79207615D01*
X164420166Y-79307615D01*
X164486833Y-79374282D01*
X164553500Y-79407615D01*
X164686833Y-79440948D01*
X164786833Y-79440948D01*
X164920166Y-79407615D01*
X164986833Y-79374282D01*
X165053500Y-79307615D01*
X165086833Y-79207615D01*
X165086833Y-79140948D01*
X165053500Y-79040948D01*
X165020166Y-79007615D01*
X164453500Y-78307615D02*
X164420166Y-78340948D01*
X164386833Y-78440948D01*
X164386833Y-78507615D01*
X164420166Y-78607615D01*
X164486833Y-78674282D01*
X164553500Y-78707615D01*
X164686833Y-78740948D01*
X164786833Y-78740948D01*
X164920166Y-78707615D01*
X164986833Y-78674282D01*
X165053500Y-78607615D01*
X165086833Y-78507615D01*
X165086833Y-78440948D01*
X165053500Y-78340948D01*
X165020166Y-78307615D01*
X164653500Y-78007615D02*
X164653500Y-77474282D01*
X164386833Y-77740948D02*
X164920166Y-77740948D01*
X165020166Y-77174282D02*
X165053500Y-77140948D01*
X165086833Y-77074282D01*
X165086833Y-76907615D01*
X165053500Y-76840948D01*
X165020166Y-76807615D01*
X164953500Y-76774282D01*
X164886833Y-76774282D01*
X164786833Y-76807615D01*
X164386833Y-77207615D01*
X164386833Y-76774282D01*
X165086833Y-76574282D02*
X164386833Y-76340948D01*
X165086833Y-76107615D01*
X163179833Y-85707615D02*
X163879833Y-85707615D01*
X163379833Y-85474282D01*
X163879833Y-85240948D01*
X163179833Y-85240948D01*
X163379833Y-84940948D02*
X163379833Y-84607615D01*
X163179833Y-85007615D02*
X163879833Y-84774282D01*
X163179833Y-84540948D01*
X163879833Y-84374282D02*
X163179833Y-83907615D01*
X163879833Y-83907615D02*
X163179833Y-84374282D01*
X163246500Y-83640948D02*
X163213166Y-83607615D01*
X163179833Y-83640948D01*
X163213166Y-83674282D01*
X163246500Y-83640948D01*
X163179833Y-83640948D01*
X163613166Y-83640948D02*
X163579833Y-83607615D01*
X163546500Y-83640948D01*
X163579833Y-83674282D01*
X163613166Y-83640948D01*
X163546500Y-83640948D01*
X163579833Y-82774282D02*
X163579833Y-82240948D01*
X163313166Y-82507615D02*
X163846500Y-82507615D01*
X163179833Y-82240948D02*
X163179833Y-82774282D01*
X163646500Y-81607615D02*
X163179833Y-81607615D01*
X163913166Y-81774282D02*
X163413166Y-81940948D01*
X163413166Y-81507615D01*
X163879833Y-81107615D02*
X163879833Y-81040948D01*
X163846500Y-80974282D01*
X163813166Y-80940948D01*
X163746500Y-80907615D01*
X163613166Y-80874282D01*
X163446500Y-80874282D01*
X163313166Y-80907615D01*
X163246500Y-80940948D01*
X163213166Y-80974282D01*
X163179833Y-81040948D01*
X163179833Y-81107615D01*
X163213166Y-81174282D01*
X163246500Y-81207615D01*
X163313166Y-81240948D01*
X163446500Y-81274282D01*
X163613166Y-81274282D01*
X163746500Y-81240948D01*
X163813166Y-81207615D01*
X163846500Y-81174282D01*
X163879833Y-81107615D01*
X163879833Y-80674282D02*
X163179833Y-80440948D01*
X163879833Y-80207615D01*
X163646500Y-79540948D02*
X163646500Y-79274282D01*
X163879833Y-79440948D02*
X163279833Y-79440948D01*
X163213166Y-79407615D01*
X163179833Y-79340948D01*
X163179833Y-79274282D01*
X163179833Y-78940948D02*
X163213166Y-79007615D01*
X163246500Y-79040948D01*
X163313166Y-79074282D01*
X163513166Y-79074282D01*
X163579833Y-79040948D01*
X163613166Y-79007615D01*
X163646500Y-78940948D01*
X163646500Y-78840948D01*
X163613166Y-78774282D01*
X163579833Y-78740948D01*
X163513166Y-78707615D01*
X163313166Y-78707615D01*
X163246500Y-78740948D01*
X163213166Y-78774282D01*
X163179833Y-78840948D01*
X163179833Y-78940948D01*
X163846500Y-77507615D02*
X163879833Y-77574282D01*
X163879833Y-77674282D01*
X163846500Y-77774282D01*
X163779833Y-77840948D01*
X163713166Y-77874282D01*
X163579833Y-77907615D01*
X163479833Y-77907615D01*
X163346500Y-77874282D01*
X163279833Y-77840948D01*
X163213166Y-77774282D01*
X163179833Y-77674282D01*
X163179833Y-77607615D01*
X163213166Y-77507615D01*
X163246500Y-77474282D01*
X163479833Y-77474282D01*
X163479833Y-77607615D01*
X163179833Y-77174282D02*
X163879833Y-77174282D01*
X163179833Y-76774282D01*
X163879833Y-76774282D01*
X163179833Y-76440948D02*
X163879833Y-76440948D01*
X163879833Y-76274282D01*
X163846500Y-76174282D01*
X163779833Y-76107615D01*
X163713166Y-76074282D01*
X163579833Y-76040948D01*
X163479833Y-76040948D01*
X163346500Y-76074282D01*
X163279833Y-76107615D01*
X163213166Y-76174282D01*
X163179833Y-76274282D01*
X163179833Y-76440948D01*
M02*
