M48
; DRILL file {KiCad (5.1.9)-1} date 04/02/21 20:51:08
; FORMAT={-:-/ absolute / inch / decimal}
; #@! TF.CreationDate,2021-04-02T20:51:08-05:00
; #@! TF.GenerationSoftware,Kicad,Pcbnew,(5.1.9)-1
; #@! TF.FileFunction,Plated,1,2,PTH
FMAT,2
INCH
T1C0.0118
T2C0.0157
T3C0.0394
%
G90
G05
T1
X6.8819Y-3.063
X6.9449Y-3.063
X6.9567Y-3.1417
X7.0079Y-3.063
X7.0079Y-3.1417
X7.0315Y-3.0315
X7.0433Y-3.1417
X7.0591Y-3.0039
X7.0787Y-3.0945
X7.0787Y-3.1299
X7.0906Y-2.9843
X7.1339Y-2.9843
X7.1339Y-3.0945
X7.1772Y-2.9843
X7.1772Y-3.0945
X7.2205Y-2.9843
X7.2205Y-3.0945
T2
X6.3986Y-3.2549
X6.5748Y-3.4252
X6.6693Y-3.0394
X6.7402Y-3.2165
X6.815Y-3.0669
X6.8278Y-3.3494
X6.8732Y-3.2796
X6.9843Y-3.2283
T3
X6.252Y-3.089
X6.252Y-3.189
X6.252Y-3.289
X7.1063Y-3.4134
X7.1063Y-3.5134
T0
M30
